<svg width="500" height="500" viewBox="0 0 500 500" fill="none" xmlns="http://www.w3.org/2000/svg">
<path d="M466.9 267.88C466.9 267.88 459.14 261.88 447.82 280.69C436.5 299.5 431.93 310.43 431.93 310.43C431.93 310.43 429.01 314.33 426.4 311.43C423.79 308.53 420.49 300.72 415.62 301.74C410.62 302.8 408.55 308.2 408.92 316.38C409.29 324.56 409.42 342.49 409.43 344.12C409.44 345.75 408.36 347.98 406.27 346.31C404.18 344.64 392.51 329.63 385.72 335.59C378.93 341.55 383.72 364.16 384.16 366.64C384.6 369.12 384.08 370.12 382.88 370.64C381.68 371.16 378.24 365.75 374.75 361.64C371.26 357.53 366.48 353.32 362.85 357.09C359.22 360.86 356.97 377.4 370.85 405.54L378.14 418.15L392.77 418.38C424.13 417 437.53 407 439.08 402C440.63 397 434.66 394.84 429.35 393.77C424.04 392.7 417.64 392.31 417.52 391.01C417.4 389.71 418.01 388.74 420.41 387.95C422.81 387.16 444.91 380.42 446.85 371.6C448.79 362.78 430 359.83 427.54 358.8C425.08 357.77 426.54 355.74 427.94 354.97C429.34 354.2 445.14 345.66 452.47 342.03C459.8 338.4 463.56 334.03 462.06 329.09C460.6 324.34 452.14 325.23 448.37 324.33C444.6 323.43 446.6 319 446.6 319C446.6 319 454 309.7 465 290.72C476 271.74 466.76 267.72 466.76 267.72" fill="#EBEBEB"/>
<path d="M456.73 284.68C456.667 284.817 456.597 284.95 456.52 285.08C456.37 285.37 456.15 285.76 455.87 286.26L453.31 290.77C451.08 294.68 447.81 300.32 443.75 307.28C435.63 321.18 424.26 340.28 411.63 361.38C399 382.48 387.57 401.55 379.38 415.38C375.3 422.31 372 427.92 369.7 431.81L367.07 436.28L366.37 437.43C366.294 437.565 366.211 437.695 366.12 437.82L366.33 437.41L366.99 436.23C367.59 435.23 368.45 433.67 369.55 431.73C371.78 427.81 375.05 422.17 379.11 415.22C387.23 401.31 398.6 382.22 411.24 361.11C423.88 340 435.29 320.95 443.47 307.11C447.55 300.19 450.86 294.58 453.15 290.68L455.79 286.22C456.09 285.72 456.32 285.34 456.48 285.06C456.64 284.78 456.73 284.68 456.73 284.68Z" fill="#E0E0E0"/>
<path d="M419.8 312.93C419.933 313.252 420.031 313.587 420.09 313.93C420.26 314.59 420.47 315.55 420.72 316.73C421.21 319.1 421.81 322.39 422.4 326.04C422.99 329.69 423.49 332.88 423.88 335.37C424.07 336.49 424.22 337.43 424.35 338.19C424.43 338.534 424.474 338.886 424.48 339.24C424.34 338.92 424.239 338.584 424.18 338.24C424.01 337.58 423.8 336.62 423.57 335.44C423.1 333.06 422.57 329.76 421.95 326.12C421.33 322.48 420.81 319.28 420.4 316.8L419.92 313.98C419.839 313.636 419.799 313.283 419.8 312.93V312.93Z" fill="#E0E0E0"/>
<path d="M425.8 339.6C425.8 339.48 432.5 337.95 440.8 336.19C449.1 334.43 455.9 333.09 455.93 333.19C455.96 333.29 449.22 334.84 440.93 336.6C432.64 338.36 425.82 339.72 425.8 339.6Z" fill="#E0E0E0"/>
<path d="M404.94 371.09C405.296 371.057 405.654 371.057 406.01 371.09L408.93 371.31C411.39 371.49 414.79 371.73 418.55 371.85C422.31 371.97 425.72 371.98 428.19 371.96H431.11C431.469 371.924 431.831 371.924 432.19 371.96C431.839 372.044 431.48 372.088 431.12 372.09C430.43 372.15 429.43 372.21 428.2 372.26C425.73 372.36 422.31 372.41 418.54 372.26C414.77 372.11 411.36 371.85 408.9 371.59C407.67 371.45 406.68 371.33 405.99 371.23C405.635 371.232 405.282 371.185 404.94 371.09Z" fill="#E0E0E0"/>
<path d="M394.2 348.16C394.405 348.425 394.576 348.713 394.71 349.02L395.95 351.42C396.95 353.42 398.38 356.28 399.9 359.42C401.42 362.56 402.76 365.42 403.72 367.47L404.83 369.94C404.985 370.235 405.106 370.547 405.19 370.87C404.984 370.605 404.809 370.316 404.67 370.01C404.34 369.36 403.92 368.56 403.43 367.61C402.43 365.61 401.01 362.75 399.49 359.61C397.97 356.47 396.62 353.61 395.66 351.56C395.23 350.56 394.85 349.76 394.55 349.09C394.395 348.796 394.278 348.483 394.2 348.16Z" fill="#E0E0E0"/>
<path d="M372.25 373.63C372.506 373.972 372.724 374.341 372.9 374.73C373.31 375.53 373.9 376.56 374.5 377.8C375.83 380.4 377.65 384.01 379.63 388.01C381.61 392.01 383.39 395.64 384.63 398.28C385.23 399.54 385.72 400.59 386.1 401.41C386.3 401.787 386.464 402.182 386.59 402.59C386.341 402.245 386.127 401.877 385.95 401.49L384.34 398.42C383.01 395.82 381.19 392.21 379.21 388.21C377.23 384.21 375.45 380.58 374.21 377.94L372.74 374.8C372.542 374.426 372.378 374.034 372.25 373.63Z" fill="#E0E0E0"/>
<path d="M386.46 401.8C386.916 401.761 387.374 401.761 387.83 401.8L391.53 401.94C394.66 402.06 398.98 402.21 403.76 402.23C408.54 402.25 412.86 402.18 415.99 402.1L419.7 402.01C420.156 401.974 420.614 401.974 421.07 402.01C420.622 402.104 420.167 402.158 419.71 402.17C418.84 402.24 417.57 402.33 416.01 402.41C412.88 402.57 408.54 402.71 403.76 402.68C398.98 402.65 394.64 402.45 391.52 402.25C389.95 402.15 388.69 402.05 387.81 401.97C387.356 401.949 386.905 401.892 386.46 401.8V401.8Z" fill="#E0E0E0"/>
<path d="M442.79 215.3H365.06V267.69H442.79V215.3Z" fill="white"/>
<path d="M448.87 254.8C448.87 254.8 448.76 254.49 448.56 253.89C448.36 253.29 448.07 252.4 447.7 251.25C446.96 248.93 445.87 245.54 444.48 241.2C441.72 232.52 437.75 220.07 432.92 204.89L433.18 205.03L359.07 228.44L359.24 228.11C364.85 245.92 370.18 262.86 374.97 278.11L374.67 277.95L428.09 261.24L443.38 256.49L447.45 255.23L448.51 254.91L448.88 254.81L448.54 254.93L447.54 255.27L443.54 256.56L428.34 261.42L374.85 278.42L374.62 278.49L374.55 278.26C369.74 263.04 364.4 246.11 358.78 228.26L358.7 228.01L358.95 227.93L433.1 204.61L433.3 204.55L433.36 204.75C438.12 220 442.03 232.52 444.75 241.25C446.09 245.58 447.14 248.96 447.85 251.25C448.2 252.39 448.47 253.25 448.65 253.87C448.83 254.49 448.87 254.8 448.87 254.8Z" fill="#E0E0E0"/>
<path d="M433.12 204.83C433.12 204.83 433.12 204.91 433.02 205.06L432.68 205.7L431.32 208.15C430.11 210.31 428.38 213.37 426.25 217.15C421.89 224.77 415.88 235.26 409.19 246.96L409.08 247.15L408.87 247.07L406.58 246.22L372.89 233.58L362.7 229.7L359.94 228.62L359.22 228.32C359.135 228.296 359.054 228.259 358.98 228.21C359.069 228.216 359.157 228.236 359.24 228.27L359.97 228.52L362.77 229.52L373 233.23L406.75 245.72L409.04 246.58L408.73 246.69C415.47 235.02 421.53 224.56 425.92 216.96C428.12 213.22 429.92 210.19 431.14 208.05L432.58 205.65C432.74 205.4 432.86 205.2 432.96 205.03C433.006 204.958 433.06 204.891 433.12 204.83V204.83Z" fill="#E0E0E0"/>
<path d="M148.1 90.11C147.943 89.4551 147.866 88.7835 147.87 88.11C147.848 87.3209 147.761 86.5349 147.61 85.76C147.483 84.6926 147.276 83.6362 146.99 82.6C146.309 79.7381 145.204 76.9943 143.71 74.46C140.22 68.3674 134.72 63.6786 128.151 61.1972C121.583 58.7159 114.356 58.5967 107.71 60.86C104.952 61.7775 102.352 63.113 100 64.82C97.5108 66.5282 95.3185 68.6327 93.51 71.05C89.6047 76.0947 87.4148 82.256 87.26 88.6338C87.1053 95.0117 88.9939 101.272 92.65 106.5C93.5222 107.747 94.4742 108.936 95.5 110.06C96.544 111.131 97.6563 112.133 98.83 113.06C101.092 114.865 103.618 116.312 106.32 117.35C112.862 119.924 120.094 120.149 126.783 117.986C133.472 115.823 139.204 111.407 143 105.49C144.613 103.02 145.85 100.324 146.67 97.49C146.998 96.4655 147.255 95.4197 147.44 94.36C147.623 93.5902 147.75 92.8081 147.82 92.02C147.846 91.3429 147.953 90.6714 148.14 90.02C148.216 90.6845 148.216 91.3555 148.14 92.02C148.133 92.8214 148.06 93.6209 147.92 94.41C147.793 95.498 147.582 96.5745 147.29 97.63C146.56 100.563 145.375 103.363 143.78 105.93C141.448 109.73 138.33 112.986 134.635 115.482C130.941 117.978 126.756 119.654 122.36 120.4C116.792 121.335 111.074 120.751 105.81 118.71C102.957 117.639 100.285 116.135 97.89 114.25C96.649 113.285 95.4731 112.24 94.37 111.12C93.2869 109.942 92.2846 108.693 91.37 107.38C87.4948 101.877 85.4879 95.2754 85.6445 88.5466C85.8011 81.8178 88.113 75.3169 92.24 70C94.1564 67.4613 96.4774 65.2552 99.11 63.47C101.591 61.7006 104.33 60.3244 107.23 59.39C112.588 57.6133 118.325 57.3094 123.84 58.51C128.194 59.4668 132.293 61.3441 135.861 64.0158C139.43 66.6875 142.386 70.0917 144.53 74C146.001 76.6407 147.051 79.4952 147.64 82.46C147.882 83.5293 148.039 84.616 148.11 85.71C148.215 86.5054 148.252 87.3083 148.22 88.11C148.254 88.7791 148.214 89.4498 148.1 90.11V90.11Z" fill="#E0E0E0"/>
<path d="M141.93 70.85C142 70.95 141.44 71.43 140.37 72.23L138.37 73.65C137.98 73.92 137.57 74.23 137.11 74.51L135.59 75.31C130.078 78.451 123.812 80.0277 117.47 79.87L114.73 79.75L112.09 79.34C111.66 79.26 111.23 79.21 110.81 79.12L109.58 78.79C108.78 78.57 107.97 78.38 107.21 78.14C104.529 77.2305 101.951 76.0406 99.52 74.59C95.39 72.09 93.38 69.82 93.52 69.68C93.66 69.54 95.93 71.39 100.09 73.55C102.518 74.8017 105.051 75.8389 107.66 76.65C108.4 76.86 109.17 77.02 109.95 77.22L111.13 77.52L112.35 77.7L114.87 78.07L117.49 78.18C123.578 78.2881 129.6 76.9154 135.04 74.18L136.57 73.52C137.04 73.27 137.46 73.01 137.87 72.79L140 71.68C141.18 71.06 141.86 70.76 141.93 70.85Z" fill="#E0E0E0"/>
<path d="M92.61 108.33C92.54 108.24 93.1 107.76 94.17 106.96L96.17 105.53C96.57 105.26 96.98 104.96 97.44 104.67L98.95 103.88C104.465 100.736 110.734 99.159 117.08 99.32L119.82 99.44L122.46 99.85C122.89 99.92 123.32 99.98 123.74 100.06L124.96 100.39C125.77 100.62 126.57 100.81 127.33 101.05C130.012 101.952 132.59 103.139 135.02 104.59C139.16 107.09 141.17 109.36 141.02 109.51C140.87 109.66 138.61 107.8 134.45 105.64C132.024 104.384 129.49 103.346 126.88 102.54C126.14 102.33 125.37 102.16 124.59 101.96L123.41 101.67L122.18 101.49L119.67 101.12L117 101C110.919 100.896 104.904 102.268 99.47 105L97.94 105.67C97.47 105.91 97.04 106.17 96.64 106.4L94.53 107.56C93.36 108.13 92.68 108.43 92.61 108.33Z" fill="#E0E0E0"/>
<path d="M148.08 90.83C148.08 91.3 134.26 91.34 117.24 90.93C100.22 90.52 86.42 89.8 86.44 89.33C86.46 88.86 100.25 88.82 117.28 89.23C134.31 89.64 148.09 90.36 148.08 90.83Z" fill="#E0E0E0"/>
<path d="M115.84 120.16C115.37 120.16 115.32 106.34 115.74 89.33C116.16 72.32 116.86 58.52 117.33 58.53C117.8 58.54 117.84 72.35 117.43 89.37C117.02 106.39 116.3 120.17 115.84 120.16Z" fill="#E0E0E0"/>
<path d="M115.84 120.11C115.72 120.29 112.32 117.99 108.4 112.77C106.113 109.707 104.263 106.341 102.9 102.77C101.236 98.3735 100.425 93.7002 100.51 89C100.623 84.2781 101.681 79.6267 103.62 75.32C105.182 71.8386 107.2 68.5801 109.62 65.63C113.77 60.63 117.2 58.39 117.31 58.57C117.42 58.75 114.38 61.28 110.57 66.37C108.347 69.3253 106.491 72.5386 105.04 75.94C103.276 80.0745 102.312 84.5062 102.2 89C102.123 93.5069 102.855 97.9911 104.36 102.24C105.613 105.717 107.292 109.026 109.36 112.09C113 117.34 116 119.92 115.84 120.11Z" fill="#E0E0E0"/>
<path d="M118 58.54C118.12 58.36 121.52 60.67 125.44 65.88C127.726 68.945 129.58 72.3099 130.95 75.88C132.61 80.2948 133.418 84.9843 133.33 89.7C133.216 94.4185 132.158 99.0664 130.22 103.37C128.66 106.855 126.642 110.117 124.22 113.07C120.07 118.07 116.64 120.31 116.53 120.13C116.42 119.95 119.46 117.41 123.27 112.33C125.495 109.371 127.355 106.154 128.81 102.75C130.578 98.6057 131.545 94.1641 131.66 89.66C131.737 85.1531 131.005 80.6689 129.5 76.42C128.245 72.9434 126.566 69.6351 124.5 66.57C120.91 61.32 117.85 58.73 118 58.54Z" fill="#E0E0E0"/>
<path d="M310.25 91C310.862 90.7228 311.39 90.288 311.78 89.74C312.229 89.0649 312.437 88.258 312.37 87.45C312.311 86.9525 312.187 86.465 312 86L311.4 84.31L304.16 64C303.41 61.87 302.62 59.63 301.79 57.3C301.38 56.13 300.96 54.94 300.54 53.73C300.357 53.1245 300.123 52.5357 299.84 51.97C299.516 51.4486 299.052 51.0292 298.5 50.76C297.938 50.4871 297.306 50.3962 296.69 50.5C296.049 50.6738 295.417 50.8842 294.8 51.13L290.87 52.58L282.65 55.58L246 69.06C245.267 69.3498 244.667 69.8998 244.314 70.6048C243.962 71.3097 243.882 72.1198 244.09 72.88C244.65 74.48 245.2 76.08 245.75 77.66C246.857 80.84 247.95 83.9733 249.03 87.06L255.22 104.82C255.47 105.53 255.72 106.23 255.96 106.93C256.154 107.588 256.545 108.171 257.08 108.6C257.606 109.013 258.251 109.245 258.92 109.26C259.612 109.222 260.291 109.052 260.92 108.76L268.68 105.93L282.62 100.87L302.82 93.59L308.32 91.59L309.76 91.1C309.922 91.0356 310.089 90.9854 310.26 90.95C310.105 91.0309 309.945 91.1011 309.78 91.16L308.37 91.71L302.91 93.77L282.78 101.25L268.86 106.38L261.11 109.23L260.11 109.6C259.74 109.725 259.351 109.785 258.96 109.78C258.165 109.761 257.398 109.487 256.77 109C256.149 108.504 255.692 107.831 255.46 107.07C255.21 106.37 254.97 105.67 254.72 104.96L248.49 87.21C247.41 84.13 246.313 81 245.2 77.82L243.51 73C243.26 72.0873 243.356 71.1143 243.781 70.2686C244.206 69.4229 244.929 68.7644 245.81 68.42L282.44 55.04L290.67 52.04L294.62 50.6C295.27 50.3337 295.938 50.1165 296.62 49.95C297.342 49.8352 298.081 49.9433 298.74 50.26C299.382 50.5754 299.92 51.0682 300.29 51.68C300.593 52.276 300.841 52.8986 301.03 53.54C301.45 54.75 301.86 55.94 302.27 57.11C303.083 59.45 303.86 61.6933 304.6 63.84L311.6 84.14C311.81 84.74 312 85.3 312.18 85.84C312.382 86.3323 312.514 86.8508 312.57 87.38C312.638 88.2264 312.405 89.0697 311.91 89.76C311.609 90.181 311.211 90.5239 310.75 90.76C310.596 90.8638 310.427 90.9446 310.25 91Z" fill="#E0E0E0"/>
<path d="M278.95 75.67L287.25 77.31L281.8 83.92L276.35 90.52L273.5 82.28L270.65 74.04L278.95 75.67Z" fill="#E0E0E0"/>
<path d="M430.79 151C429.392 150.183 427.843 149.657 426.236 149.454C424.629 149.251 422.997 149.376 421.44 149.82C418.33 150.73 415.47 152.342 413.08 154.53C408.35 158.6 405.16 165.05 403.2 170.98C409.91 172.73 417.2 169.24 420.73 167.24C426.37 164.07 434.64 154.93 430.79 151" fill="#B1BAB0"/>
<path d="M391.31 171.7C392.977 170.993 394.428 169.859 395.517 168.413C396.605 166.966 397.293 165.258 397.51 163.46C397.689 161.662 397.51 159.846 396.983 158.118C396.456 156.389 395.592 154.782 394.44 153.39C393.44 152.09 391.98 150.88 390.32 150.86C389.539 150.902 388.782 151.152 388.129 151.582C387.475 152.013 386.948 152.609 386.6 153.31C385.935 154.729 385.652 156.298 385.78 157.86C385.98 163.2 387.16 168.33 391.31 171.7" fill="#B1BAB0"/>
<g opacity="0.4">
<path opacity="0.4" d="M391.31 171.7C392.977 170.993 394.428 169.859 395.517 168.413C396.605 166.966 397.293 165.258 397.51 163.46C397.689 161.662 397.51 159.846 396.983 158.118C396.456 156.389 395.592 154.782 394.44 153.39C393.44 152.09 391.98 150.88 390.32 150.86C389.539 150.902 388.782 151.152 388.129 151.582C387.475 152.013 386.948 152.609 386.6 153.31C385.935 154.729 385.652 156.298 385.78 157.86C385.98 163.2 387.16 168.33 391.31 171.7Z" fill="white"/>
</g>
<path d="M379.37 188C379.715 187.742 380.033 187.451 380.32 187.13L382.81 184.67C385.647 182.023 388.041 178.937 389.9 175.53C391.716 172.065 392.576 168.178 392.39 164.27C392.315 163.095 392.1 161.934 391.75 160.81C391.66 160.503 391.549 160.203 391.42 159.91C391.34 159.703 391.29 159.603 391.27 159.61C391.696 161.139 391.964 162.707 392.07 164.29C392.148 168.114 391.265 171.896 389.5 175.29C387.651 178.652 385.32 181.725 382.58 184.41C381.58 185.48 380.74 186.35 380.19 186.97C379.887 187.289 379.613 187.633 379.37 188V188Z" fill="#263238"/>
<path d="M423.88 157.37C423.706 157.442 423.539 157.529 423.38 157.63L422.01 158.45C420.82 159.17 419.11 160.24 417.01 161.57C412.81 164.24 407.06 168.01 400.81 172.31C394.56 176.61 389 180.64 385 183.61C383 185.1 381.39 186.31 380.29 187.17L379.04 188.17C378.884 188.278 378.74 188.402 378.61 188.54C378.781 188.458 378.942 188.358 379.09 188.24L380.4 187.32L385.18 183.88C389.18 180.98 394.82 177 401.07 172.7C407.32 168.4 413.07 164.59 417.19 161.85L422.11 158.61L423.44 157.72C423.595 157.614 423.742 157.497 423.88 157.37V157.37Z" fill="#263238"/>
<path d="M393.29 181.3C396.752 179.702 400.546 178.951 404.356 179.111C408.166 179.271 411.884 180.337 415.2 182.22C416.87 183.22 418.61 184.77 418.34 186.69C418.07 188.61 415.97 189.69 414.08 190.09C410.119 190.934 405.997 190.587 402.233 189.092C398.469 187.598 395.232 185.022 392.93 181.69" fill="#B1BAB0"/>
<path d="M409.86 184.84C409.549 184.591 409.214 184.373 408.86 184.19C408.52 184 408.11 183.76 407.6 183.53C407.04 183.251 406.466 183 405.88 182.78C405.173 182.499 404.452 182.255 403.72 182.05C402.879 181.797 402.024 181.59 401.16 181.43C399.18 181.082 397.168 180.958 395.16 181.06C393.152 181.192 391.165 181.555 389.24 182.14C388.406 182.405 387.588 182.719 386.79 183.08C386.105 183.375 385.437 183.709 384.79 184.08C384.17 184.39 383.66 184.78 383.19 185.08C382.79 185.332 382.406 185.61 382.04 185.91C381.711 186.146 381.403 186.411 381.12 186.7C381.18 186.78 382.51 185.7 384.94 184.37C385.606 184.002 386.29 183.668 386.99 183.37C387.73 183.04 388.55 182.78 389.42 182.49C393.216 181.35 397.226 181.113 401.13 181.8C401.981 181.935 402.822 182.122 403.65 182.36C404.381 182.547 405.102 182.77 405.81 183.03C408.33 184 409.81 184.92 409.86 184.84Z" fill="#263238"/>
<path d="M129.9 296.3C147.26 281.94 149.5 257.73 147.03 236.3C146.62 232.72 146.71 228.92 144.75 225.91C142.79 222.9 138.64 221.08 135.55 222.85C132.99 224.32 132.08 227.51 130.8 230.19C129.088 233.765 126.402 236.784 123.05 238.9C120.87 240.26 118.05 241.22 115.75 240.16C112.52 238.7 111.81 234.46 111.54 230.9C111.047 224.233 110.55 217.59 110.05 210.97C109.78 207.4 109.5 203.76 108.12 200.47C106.74 197.18 104.03 194.24 100.56 193.56C97.09 192.88 93.06 195.18 92.63 198.73C92.6172 200.214 92.7041 201.698 92.89 203.17C92.89 204.66 92.35 206.35 90.98 206.88C89.61 207.41 88.09 206.52 86.98 205.56C82.98 202.26 80.14 197.83 77.43 193.41C74.72 188.99 72.08 184.46 68.43 180.8C64.78 177.14 59.91 174.42 54.78 174.54C49.65 174.66 44.47 178.26 43.59 183.37C42.71 188.48 46.05 193.37 49.59 197.17C54.8117 202.816 60.8202 207.679 67.43 211.61C68.6986 212.182 69.7501 213.146 70.43 214.36C71.43 216.67 69.34 219.21 67.06 220.19C64.47 221.29 61.57 221.24 58.82 221.8C56.07 222.36 53.16 223.8 52.32 226.53C51.15 230.29 54.51 233.86 57.71 236.12C64.1197 240.642 71.261 244.025 78.82 246.12C81.52 246.87 84.34 247.48 86.61 249.12C88.88 250.76 90.41 253.89 89.33 256.51C88.25 259.13 85 260.25 82.2 260C79.4 259.75 76.84 258.42 74.14 257.64C69.14 256.19 62.8 257.04 60 261.53C58.17 264.48 58.3 268.37 59.61 271.6C61.0716 274.77 63.1524 277.616 65.73 279.97C74.2455 288.66 84.9157 294.934 96.65 298.15C108.33 301.15 118.94 301.38 129.9 296.33" fill="#B1BAB0"/>
<g opacity="0.2">
<path opacity="0.2" d="M129.9 296.3C147.26 281.94 149.5 257.73 147.03 236.3C146.62 232.72 146.71 228.92 144.75 225.91C142.79 222.9 138.64 221.08 135.55 222.85C132.99 224.32 132.08 227.51 130.8 230.19C129.088 233.765 126.402 236.784 123.05 238.9C120.87 240.26 118.05 241.22 115.75 240.16C112.52 238.7 111.81 234.46 111.54 230.9C111.047 224.233 110.55 217.59 110.05 210.97C109.78 207.4 109.5 203.76 108.12 200.47C106.74 197.18 104.03 194.24 100.56 193.56C97.09 192.88 93.06 195.18 92.63 198.73C92.6172 200.214 92.7041 201.698 92.89 203.17C92.89 204.66 92.35 206.35 90.98 206.88C89.61 207.41 88.09 206.52 86.98 205.56C82.98 202.26 80.14 197.83 77.43 193.41C74.72 188.99 72.08 184.46 68.43 180.8C64.78 177.14 59.91 174.42 54.78 174.54C49.65 174.66 44.47 178.26 43.59 183.37C42.71 188.48 46.05 193.37 49.59 197.17C54.8117 202.816 60.8202 207.679 67.43 211.61C68.6986 212.182 69.7501 213.146 70.43 214.36C71.43 216.67 69.34 219.21 67.06 220.19C64.47 221.29 61.57 221.24 58.82 221.8C56.07 222.36 53.16 223.8 52.32 226.53C51.15 230.29 54.51 233.86 57.71 236.12C64.1197 240.642 71.261 244.025 78.82 246.12C81.52 246.87 84.34 247.48 86.61 249.12C88.88 250.76 90.41 253.89 89.33 256.51C88.25 259.13 85 260.25 82.2 260C79.4 259.75 76.84 258.42 74.14 257.64C69.14 256.19 62.8 257.04 60 261.53C58.17 264.48 58.3 268.37 59.61 271.6C61.0716 274.77 63.1524 277.616 65.73 279.97C74.2455 288.66 84.9157 294.934 96.65 298.15C108.33 301.15 118.94 301.38 129.9 296.33" fill="white"/>
</g>
<path d="M131.47 312.19C129.663 302.32 126.914 292.645 123.26 283.3C118.748 271.913 113.586 260.795 107.8 250L103.3 241.47C101.81 238.67 100.3 235.9 98.73 233.28C95.6378 228.245 92.2659 223.387 88.63 218.73C85.2 214.25 81.77 210.13 78.54 206.31C75.31 202.49 72.22 198.98 69.27 195.9C64.6339 191.024 59.6181 186.523 54.27 182.44C52.38 180.99 50.88 179.92 49.86 179.21L48.68 178.4C48.5548 178.299 48.417 178.215 48.27 178.15C48.384 178.264 48.5078 178.368 48.64 178.46L49.78 179.31C50.78 180.06 52.25 181.17 54.11 182.64C59.3806 186.792 64.3313 191.335 68.92 196.23C71.84 199.32 74.92 202.83 78.11 206.66C81.3 210.49 84.72 214.66 88.11 219.1C91.7054 223.754 95.0437 228.601 98.11 233.62C99.71 236.23 101.11 238.98 102.65 241.78L107.15 250.31C112.923 261.101 118.091 272.205 122.63 283.57C126.313 292.853 129.115 302.462 131 312.27" fill="#263238"/>
<path d="M98.54 233.22C98.6786 232.714 98.7558 232.194 98.77 231.67C98.88 230.67 98.98 229.22 99.09 227.42C99.3 223.83 99.43 218.87 99.55 213.42C99.67 207.97 99.88 202.99 100.14 199.42C100.27 197.63 100.39 196.18 100.49 195.19C100.575 194.671 100.598 194.144 100.56 193.62C100.4 194.117 100.292 194.63 100.24 195.15C100.06 196.15 99.87 197.59 99.68 199.37C99.29 202.95 99.02 207.92 98.9 213.37C98.78 218.82 98.7 223.67 98.62 227.37C98.62 229.06 98.54 230.48 98.51 231.62C98.4673 232.153 98.4773 232.689 98.54 233.22V233.22Z" fill="#263238"/>
<path d="M52 228.37C52.6095 228.455 53.2259 228.478 53.84 228.44C55.03 228.44 56.74 228.44 58.84 228.53C63.07 228.64 68.91 229 75.34 229.68C81.77 230.36 87.56 231.24 91.73 232C93.81 232.36 95.5 232.7 96.66 232.92C97.2572 233.071 97.866 233.171 98.48 233.22C97.9131 232.979 97.3235 232.794 96.72 232.67C95.57 232.37 93.89 231.96 91.81 231.53C87.65 230.66 81.81 229.71 75.4 229.02C69.9008 228.403 64.3735 228.07 58.84 228.02C56.72 228.02 55 228.07 53.84 228.15C53.2212 228.167 52.6053 228.241 52 228.37V228.37Z" fill="#263238"/>
<path d="M122.63 282.5C122.745 282.319 122.836 282.124 122.9 281.92L123.55 280.2C124.11 278.7 124.85 276.51 125.75 273.8C127.53 268.37 129.75 260.8 132.1 252.4C134.45 244 136.61 236.4 138.27 230.97C139.09 228.31 139.77 226.13 140.27 224.51C140.48 223.81 140.66 223.23 140.8 222.75C140.879 222.548 140.929 222.336 140.95 222.12C140.95 222.12 140.83 222.31 140.68 222.71C140.53 223.11 140.29 223.71 140.03 224.43C139.47 225.92 138.72 228.11 137.83 230.82C136.05 236.25 133.83 243.82 131.47 252.22C129.11 260.62 126.97 268.22 125.3 273.65L123.3 280.11C123.08 280.82 122.91 281.4 122.76 281.87C122.691 282.074 122.648 282.286 122.63 282.5V282.5Z" fill="#263238"/>
<path d="M60.16 267.82C60.3588 267.918 60.5712 267.985 60.79 268.02L62.6 268.47L69.29 270.06C74.94 271.39 82.72 273.33 91.29 275.48C99.86 277.63 107.69 279.48 113.37 280.73C116.21 281.34 118.51 281.81 120.11 282.11L121.95 282.43C122.163 282.482 122.381 282.506 122.6 282.5C122.403 282.406 122.195 282.339 121.98 282.3L120.16 281.85L113.47 280.27C107.82 278.93 100.04 276.99 91.47 274.84C82.9 272.69 75.07 270.84 69.4 269.6C66.56 268.99 64.25 268.51 62.66 268.22L60.81 267.89C60.5964 267.844 60.3785 267.82 60.16 267.82V267.82Z" fill="#263238"/>
<path d="M149.5 108.82C149.5 108.82 153.59 214.17 154.36 280.11C155.09 343.19 134 413.28 137 435.35L390.57 448.35C390.57 448.35 378.78 285.35 383.28 233.85C387.58 184.75 387.55 103.31 387.55 103.31L149.5 108.82Z" fill="#E0E0E0"/>
<path d="M139.49 105.4C139.49 105.4 143.68 210.75 144.49 276.69C145.24 339.77 133.98 416.22 137.07 438.29L382.7 429.77C382.7 429.77 373.75 281.97 378.35 230.49C382.73 181.39 382.68 100.85 382.68 100.85L139.49 105.4Z" fill="#EBEBEB"/>
<path d="M136.29 105.41C136.29 105.41 130.11 221.41 130.91 287.35C131.68 350.42 133.91 416.22 137.06 438.29L376 440.42C376 440.42 366.79 292.62 371.51 241.14C376 192 376 104.66 376 104.66L136.29 105.41Z" fill="#FAFAFA"/>
<path d="M376.53 440.92L136.63 438.79L136.56 438.36C133.09 414.27 131.08 341.96 130.41 287.36C129.61 222.16 135.73 106.56 135.79 105.36V104.89L376.48 104.13V104.63C376.48 105.5 376.48 192.63 371.99 241.16C367.32 292.01 376.39 438.88 376.48 440.36L376.53 440.92ZM137.53 437.79L375.53 439.91C374.93 430.07 366.53 290.47 371.08 241.09C375.36 194.5 375.55 112.37 375.56 105.16L136.82 105.91C136.39 114.08 130.7 224.29 131.47 287.34C132.08 341.6 134.07 413.34 137.49 437.79H137.53Z" fill="#263238"/>
<path d="M250.75 174.21H152.41V269.36H250.75V174.21Z" fill="#B1BAB0"/>
<g opacity="0.3">
<path opacity="0.3" d="M160.03 261.21L187.24 212.25L209.49 243.55L223.01 226.93L243.13 261.21H160.03Z" fill="black"/>
</g>
<g opacity="0.3">
<path opacity="0.3" d="M219 202.73C219 204.13 218.585 205.499 217.807 206.663C217.029 207.828 215.923 208.735 214.629 209.271C213.336 209.807 211.912 209.947 210.539 209.674C209.165 209.401 207.904 208.726 206.914 207.736C205.924 206.746 205.249 205.485 204.976 204.111C204.703 202.738 204.843 201.314 205.379 200.021C205.915 198.727 206.822 197.621 207.987 196.843C209.151 196.065 210.52 195.65 211.92 195.65C213.798 195.65 215.599 196.396 216.926 197.724C218.254 199.051 219 200.852 219 202.73V202.73Z" fill="black"/>
</g>
<g opacity="0.3">
<path opacity="0.3" d="M243.13 261.48C243.118 261.35 243.118 261.22 243.13 261.09C243.13 260.8 243.13 260.44 243.13 259.98C243.13 258.98 243.13 257.54 243.13 255.7C243.13 251.92 243.07 246.47 243.02 239.54C242.97 225.64 242.9 205.85 242.82 182.09L243.22 182.49L160.13 182.56L160.59 182.1V203.46C160.59 210.46 160.59 217.3 160.59 223.96C160.59 237.29 160.59 249.89 160.54 261.48L160.13 261.07L220.21 261.28L237.16 261.38L241.65 261.43H242.82H243.23H242.86H241.74L237.33 261.48L220.47 261.59L160.13 261.8H159.73V261.39C159.73 249.8 159.73 237.2 159.73 223.87C159.73 217.21 159.73 210.36 159.73 203.37V182.1C159.31 182.51 160.29 181.52 160.2 181.62L243.29 181.69H243.69V182.09C243.6 205.96 243.53 225.83 243.48 239.79C243.48 246.68 243.4 252.11 243.38 255.86C243.38 257.67 243.38 259.07 243.33 260.07C243.33 260.51 243.33 260.86 243.33 261.13C243.274 261.253 243.207 261.37 243.13 261.48V261.48Z" fill="black"/>
</g>
<path d="M343.8 356.41H276.19V421.82H343.8V356.41Z" fill="#B1BAB0"/>
<g opacity="0.4">
<path opacity="0.4" d="M281.43 416.22L300.13 382.56L315.43 404.07L324.72 392.65L338.55 416.22H281.43Z" fill="black"/>
</g>
<g opacity="0.4">
<path opacity="0.4" d="M321.94 376C321.942 376.964 321.658 377.907 321.123 378.709C320.589 379.512 319.829 380.138 318.938 380.507C318.048 380.877 317.068 380.974 316.122 380.787C315.177 380.599 314.308 380.135 313.626 379.454C312.945 378.772 312.481 377.903 312.293 376.958C312.106 376.012 312.203 375.032 312.573 374.142C312.942 373.251 313.568 372.491 314.371 371.957C315.173 371.422 316.116 371.138 317.08 371.14C318.369 371.14 319.605 371.652 320.517 372.563C321.428 373.475 321.94 374.711 321.94 376V376Z" fill="black"/>
</g>
<g opacity="0.4">
<path opacity="0.4" d="M338.55 416.4C338.55 416.4 338.55 416.31 338.55 416.13C338.55 415.95 338.55 415.69 338.55 415.37C338.55 414.703 338.55 413.723 338.55 412.43C338.55 409.83 338.55 406.08 338.48 401.32C338.48 391.76 338.4 378.16 338.34 361.82L338.61 362.1H281.49L281.81 361.78V376.47C281.81 381.27 281.81 385.98 281.81 390.56C281.81 399.72 281.81 408.38 281.81 416.35L281.53 416.07L322.83 416.21L334.48 416.29H337.57H338.37H338.65C338.567 416.3 338.483 416.3 338.4 416.29H337.63H334.63L323.04 416.36L281.56 416.5H281.28V416.22C281.28 408.22 281.28 399.59 281.28 390.43C281.28 385.85 281.28 381.14 281.28 376.34V361.83L281.6 361.5L338.72 361.55H339V361.82C338.94 378.23 338.89 391.9 338.86 401.49C338.86 406.23 338.8 409.96 338.79 412.54C338.79 413.78 338.79 414.75 338.79 415.43C338.79 415.74 338.79 415.98 338.79 416.16C338.79 416.34 338.56 416.41 338.55 416.4Z" fill="black"/>
</g>
<path d="M361.55 155.3H361H359.4L353.23 155.43L330.53 155.81L255.65 156.86L180.75 157.76L158.05 157.97H151.88H150.28H149.73H150.28H151.88L158.05 157.84L180.74 157.46L255.64 156.41L330.53 155.51L353.22 155.3H359.4H361C361.36 155.28 361.55 155.3 361.55 155.3Z" fill="#263238"/>
<path d="M356.73 120.91C356.73 120.91 356.55 120.91 356.19 120.91H354.58L348.41 121.04L325.71 121.42L250.83 122.42L175.93 123.32L153.24 123.53H147.07H145.46C145.1 123.53 144.91 123.53 144.91 123.53H145.46H147.06L153.23 123.4L175.93 123.02L250.82 122.02L325.71 121.12L348.41 120.91H354.58H356.18C356.55 120.89 356.73 120.91 356.73 120.91Z" fill="#263238"/>
<path d="M352.07 182.87C352.07 183.01 333.84 183.13 311.36 183.13C288.88 183.13 270.64 183.01 270.64 182.87C270.64 182.73 288.86 182.61 311.36 182.61C333.86 182.61 352.07 182.73 352.07 182.87Z" fill="#263238"/>
<path d="M352.07 195.91C352.07 196.05 333.84 196.17 311.36 196.17C288.88 196.17 270.64 196.05 270.64 195.91C270.64 195.77 288.86 195.65 311.36 195.65C333.86 195.65 352.07 195.76 352.07 195.91Z" fill="#263238"/>
<path d="M352.07 209C352.07 209.14 333.84 209.26 311.36 209.26C288.88 209.26 270.64 209.14 270.64 209C270.64 208.86 288.86 208.74 311.36 208.74C333.86 208.74 352.07 208.8 352.07 209Z" fill="#263238"/>
<path d="M352.07 222C352.07 222.15 333.84 222.26 311.36 222.26C288.88 222.26 270.64 222.15 270.64 222C270.64 221.85 288.86 221.74 311.36 221.74C333.86 221.74 352.07 221.84 352.07 222Z" fill="#263238"/>
<path d="M352.07 235C352.07 235.15 333.84 235.26 311.36 235.26C288.88 235.26 270.64 235.15 270.64 235C270.64 234.85 288.86 234.74 311.36 234.74C333.86 234.74 352.07 234.88 352.07 235Z" fill="#263238"/>
<path d="M245.53 345.7C245.53 345.84 227.3 345.96 204.82 345.96C182.34 345.96 164.1 345.84 164.1 345.7C164.1 345.56 182.32 345.44 204.82 345.44C227.32 345.44 245.53 345.56 245.53 345.7Z" fill="#263238"/>
<path d="M245.53 361.5C245.53 361.64 227.3 361.76 204.82 361.76C182.34 361.76 164.1 361.64 164.1 361.5C164.1 361.36 182.32 361.24 204.82 361.24C227.32 361.24 245.53 361.35 245.53 361.5Z" fill="#263238"/>
<path d="M245.53 377.29C245.53 377.44 227.3 377.55 204.82 377.55C182.34 377.55 164.1 377.44 164.1 377.29C164.1 377.14 182.32 377.03 204.82 377.03C227.32 377.03 245.53 377.15 245.53 377.29Z" fill="#263238"/>
<path d="M245.53 393.09C245.53 393.23 227.3 393.35 204.82 393.35C182.34 393.35 164.1 393.23 164.1 393.09C164.1 392.95 182.32 392.83 204.82 392.83C227.32 392.83 245.53 392.94 245.53 393.09Z" fill="#263238"/>
<path d="M212.43 410.08C212.43 410.22 201.61 410.34 188.26 410.34C174.91 410.34 164.1 410.22 164.1 410.08C164.1 409.94 174.91 409.82 188.26 409.82C201.61 409.82 212.43 409.93 212.43 410.08Z" fill="#263238"/>
<path d="M314.4 248.06C313.83 248.142 313.255 248.175 312.68 248.16L307.99 248.24C303.99 248.24 298.56 248.32 292.52 248.32C286.48 248.32 281 248.32 277.04 248.24L272.35 248.16C271.778 248.175 271.206 248.141 270.64 248.06C271.206 247.979 271.778 247.945 272.35 247.96L277.04 247.88C281.04 247.88 286.48 247.8 292.52 247.8C298.56 247.8 304.03 247.8 307.99 247.88L312.68 247.96C313.255 247.945 313.83 247.978 314.4 248.06V248.06Z" fill="#263238"/>
<path d="M356 330C356 330.14 312.35 330.26 258.52 330.26C204.69 330.26 161 330.09 161 330C161 329.91 204.64 329.74 258.48 329.74C312.32 329.74 356 329.81 356 330Z" fill="#263238"/>
<path d="M356 312.74C356 312.88 312.35 313 258.52 313C204.69 313 161.04 312.88 161.04 312.74C161.04 312.6 204.68 312.48 258.52 312.48C312.36 312.48 356 312.59 356 312.74Z" fill="#263238"/>
<path d="M356 298.17C356 298.31 312.35 298.43 258.52 298.43C204.69 298.43 161.04 298.31 161.04 298.17C161.04 298.03 204.68 297.91 258.52 297.91C312.36 297.91 356 298 356 298.17Z" fill="#263238"/>
<path d="M252.12 286.84C252.12 286.98 230.94 287.1 204.82 287.1C178.7 287.1 157.51 286.98 157.51 286.84C157.51 286.7 178.69 286.58 204.82 286.58C230.95 286.58 252.12 286.69 252.12 286.84Z" fill="#FF725E"/>
<path d="M227.7 288.31C235.92 286.31 241.02 276.15 237.7 268.31C235.93 264.08 232.12 260.42 232.34 255.83C232.49 252.71 234.55 249.98 235.02 246.89C235.91 241.1 231.27 236.11 229.14 230.66C226.93 225.04 227.42 218.78 227.45 212.73C227.48 206.68 226.82 200.19 222.91 195.58L218.06 265.86L227.7 288.31Z" fill="#263238"/>
<path d="M172.9 180.63C165.77 185 160.81 192.32 157.9 200.15C154.99 207.98 153.84 216.37 152.97 224.69C150.671 246.673 149.899 268.79 150.66 290.88C177.66 294.29 204.85 297.71 232 295.88C227.29 264.88 224.31 233.88 228.08 202.8" fill="#263238"/>
<path d="M233.39 285.21C233.39 285.21 233.72 285.31 234.39 285.32C235.322 285.313 236.229 285.012 236.98 284.46C238.184 283.613 239.035 282.353 239.37 280.92C239.703 278.993 239.449 277.01 238.64 275.23C237.85 273.23 236.51 271.23 235.33 268.9C234.697 267.702 234.22 266.429 233.91 265.11C233.641 263.696 233.597 262.248 233.78 260.82C234.338 257.816 235.269 254.894 236.55 252.12C237.71 249.21 238.95 246.12 239 242.82C238.908 239.605 237.902 236.483 236.1 233.82C234.48 231.14 232.61 228.72 231.1 226.22C228.853 222.508 227.369 218.384 226.738 214.091C226.106 209.798 226.338 205.422 227.42 201.22C227.658 200.307 227.949 199.409 228.29 198.53L228.55 197.84C228.58 197.76 228.617 197.684 228.66 197.61C228.655 197.696 228.634 197.781 228.6 197.86C228.6 198.05 228.47 198.28 228.38 198.56C228.17 199.17 227.92 200.08 227.62 201.27C226.834 204.633 226.571 208.097 226.84 211.54C227.228 216.646 228.829 221.587 231.51 225.95C233.01 228.41 234.88 230.82 236.51 233.54C238.14 236.26 239.58 239.39 239.51 242.84C239.44 246.29 238.18 249.41 237.01 252.32C235.737 255.051 234.809 257.93 234.25 260.89C234.062 262.266 234.096 263.664 234.35 265.03C234.638 266.31 235.092 267.547 235.7 268.71C236.84 271 238.19 273.03 238.97 275.11C239.785 276.956 240.022 279.006 239.65 280.99C239.279 282.482 238.366 283.783 237.09 284.64C236.298 285.194 235.346 285.472 234.38 285.43C234.132 285.417 233.887 285.373 233.65 285.3C233.559 285.286 233.47 285.256 233.39 285.21V285.21Z" fill="#263238"/>
<path d="M302.77 289.53C301.41 291.02 300.14 291.31 299.52 288.41C298.15 282.02 294.75 277.6 293.03 277.05C291.31 276.5 289.96 278.74 291.15 280.37C292.274 282.271 293.132 284.316 293.7 286.45C294.225 288.142 294.464 289.909 294.41 291.68C294.36 293.21 294.26 294.57 294.16 295.78C294.16 295.78 293.52 302.78 291.57 306.03L308.78 318.61L315.62 310.89C315.62 310.89 320.07 307.07 318.79 301.32C317.51 295.57 312.38 288.25 312.38 288.25C310.62 287.39 315.26 277.32 317.06 274.04C318.86 270.76 318.06 268.6 315.97 268.96C314.56 269.21 308.82 279.12 307.11 282.41C306.18 284.21 304.41 287.74 302.77 289.53Z" fill="#FFBE9D"/>
<path d="M225.67 391C220.67 376.63 222.11 374.54 221.37 369.4L218.1 390.4L233.52 438.18L173.28 438.53H122.68L133.55 376.9L122.2 362.77L121.96 368.77L87.55 373.44C87.55 373.44 103.37 325.55 111.1 304.76C118.83 283.97 133.55 277.13 133.55 277.13C161.55 267.56 182.45 267 206.66 272.9C216.581 275.358 225.57 280.653 232.528 288.139C239.487 295.625 244.113 304.977 245.84 315.05C245.84 315.33 245.94 315.61 245.98 315.88L255.21 360.19L291.51 302.19L313 319.08L291.13 358.87L272.7 393.12C259.62 410.01 231.97 406.42 225.7 391.02" fill="#929683"/>
<path d="M138.48 325.57C138.33 325.57 138.87 322.78 139.26 319.34C139.65 315.9 139.76 313.09 139.92 313.09C140.147 315.191 140.1 317.312 139.78 319.4C139.618 321.505 139.181 323.579 138.48 325.57V325.57Z" fill="#263238"/>
<path d="M217.25 318.61C217.25 318.61 217.38 318.74 217.59 319.03L218.48 320.3C218.955 320.966 219.39 321.661 219.78 322.38C220.24 323.22 220.84 324.14 221.32 325.24C221.91 326.417 222.434 327.625 222.89 328.86C223.44 330.18 223.89 331.64 224.32 333.16C225.214 336.51 225.776 339.94 226 343.4C226.175 346.858 226.045 350.325 225.61 353.76C225.49 354.55 225.38 355.32 225.27 356.07C225.16 356.82 224.98 357.53 224.85 358.23C224.6 359.62 224.24 360.89 223.94 362.06C223.64 363.23 223.28 364.26 223 365.17C222.72 366.08 222.43 366.86 222.18 367.48L221.61 368.93C221.555 369.103 221.477 369.267 221.38 369.42C221.407 369.239 221.454 369.061 221.52 368.89C221.64 368.5 221.8 368.01 221.99 367.42C222.18 366.83 222.47 366.01 222.72 365.09C222.97 364.17 223.33 363.14 223.58 361.97C223.83 360.8 224.19 359.53 224.43 358.14C224.55 357.45 224.71 356.74 224.82 355.99C224.93 355.24 225.02 354.49 225.13 353.7C225.535 350.293 225.652 346.857 225.48 343.43C225.258 340.007 224.719 336.613 223.87 333.29C223.42 331.77 223.03 330.29 222.5 329.02C222.066 327.787 221.565 326.579 221 325.4C220.54 324.29 220 323.4 219.54 322.52C219.08 321.64 218.68 320.98 218.32 320.41L217.51 319.09C217.411 318.937 217.324 318.776 217.25 318.61V318.61Z" fill="#263238"/>
<path d="M254.79 375.74C254.599 372.897 254.575 370.046 254.72 367.2C254.703 364.35 254.853 361.502 255.17 358.67C255.373 361.512 255.397 364.365 255.24 367.21C255.27 370.06 255.12 372.909 254.79 375.74V375.74Z" fill="#263238"/>
<path d="M262.06 374.93C260.787 372.444 259.669 369.883 258.71 367.26C257.592 364.698 256.634 362.07 255.84 359.39C257.12 361.872 258.239 364.434 259.19 367.06C260.306 369.623 261.264 372.251 262.06 374.93V374.93Z" fill="#263238"/>
<path d="M223.34 406.35H223.08L222.33 406.28L221.12 406.16C220.569 406.092 220.014 406.072 219.46 406.1C215.918 406.089 212.394 406.598 209 407.61C204.68 408.77 199.71 410.73 194 412.4C191.021 413.319 187.949 413.903 184.84 414.14C181.478 414.408 178.097 413.976 174.91 412.87C171.786 411.645 168.774 410.149 165.91 408.4C163.277 406.789 160.514 405.401 157.65 404.25C152.725 402.465 147.416 402.013 142.26 402.94C140.282 403.274 138.345 403.813 136.48 404.55C135.067 405.093 133.696 405.741 132.38 406.49C131.31 407.14 130.48 407.65 129.96 408.05L129.34 408.48C129.2 408.57 129.13 408.62 129.12 408.61C130.1 407.755 131.154 406.989 132.27 406.32C133.583 405.548 134.954 404.88 136.37 404.32C138.247 403.545 140.202 402.972 142.2 402.61C147.424 401.629 152.814 402.054 157.82 403.84C160.717 404.986 163.511 406.377 166.17 408C168.994 409.733 171.965 411.212 175.05 412.42C178.168 413.506 181.478 413.932 184.77 413.67C187.843 413.441 190.881 412.874 193.83 411.98C199.51 410.34 204.51 408.42 208.83 407.3C212.251 406.314 215.801 405.852 219.36 405.93C219.916 405.924 220.471 405.964 221.02 406.05L222.24 406.22L222.98 406.34C223.1 406.325 223.221 406.328 223.34 406.35V406.35Z" fill="#F5F5F5"/>
<path d="M220.27 368.5C220.001 368.563 219.726 368.6 219.45 368.61L218.45 368.7C218.06 368.75 217.62 368.88 217.12 368.98C214.329 369.737 211.709 371.02 209.4 372.76C207.9 373.81 206.32 375.06 204.62 376.39C202.822 377.844 200.95 379.202 199.01 380.46C196.865 381.853 194.498 382.867 192.01 383.46C190.673 383.749 189.308 383.886 187.94 383.87C186.539 383.837 185.143 383.679 183.77 383.4C178.2 382.24 173.4 379.69 169.05 377.56C165.243 375.534 161.194 374.002 157 373C154.182 372.35 151.258 372.302 148.42 372.86C147.652 373.029 146.896 373.253 146.16 373.53C145.907 373.636 145.646 373.723 145.38 373.79C145.615 373.647 145.863 373.527 146.12 373.43C146.846 373.108 147.599 372.85 148.37 372.66C151.238 372.02 154.212 372.02 157.08 372.66C161.302 373.621 165.383 375.124 169.22 377.13C173.58 379.24 178.37 381.76 183.83 382.89C185.174 383.16 186.539 383.314 187.91 383.35C189.237 383.366 190.561 383.239 191.86 382.97C194.315 382.393 196.652 381.399 198.77 380.03C200.699 378.791 202.565 377.456 204.36 376.03C206.07 374.71 207.67 373.48 209.2 372.43C211.561 370.697 214.243 369.449 217.09 368.76C217.6 368.67 218.09 368.57 218.44 368.53H219.44C219.716 368.505 219.993 368.495 220.27 368.5Z" fill="#F5F5F5"/>
<path d="M275.65 384.62C275.557 384.776 275.446 384.92 275.32 385.05C274.989 385.451 274.625 385.822 274.23 386.16C272.758 387.391 271.034 388.285 269.18 388.78C266.431 389.505 263.566 389.678 260.75 389.29C257.351 388.739 254.005 387.895 250.75 386.77C247.507 385.652 244.155 384.881 240.75 384.47C237.974 384.228 235.177 384.568 232.54 385.47C230.766 386.076 229.147 387.066 227.8 388.37C227.443 388.732 227.109 389.116 226.8 389.52C226.697 389.671 226.576 389.808 226.44 389.93C226.508 389.762 226.599 389.604 226.71 389.46C226.989 389.022 227.307 388.611 227.66 388.23C228.987 386.839 230.62 385.777 232.43 385.13C235.106 384.153 237.961 383.768 240.8 384C244.237 384.38 247.621 385.142 250.89 386.27C254.12 387.393 257.438 388.246 260.81 388.82C263.57 389.214 266.381 389.079 269.09 388.42C270.905 387.964 272.606 387.14 274.09 386C275.14 385.17 275.6 384.57 275.65 384.62Z" fill="#F5F5F5"/>
<path d="M292.86 355.49C292.86 355.49 292.78 355.59 292.59 355.75C292.318 355.987 292.019 356.191 291.7 356.36C290.501 356.972 289.166 357.271 287.82 357.23C285.839 357.158 283.894 356.675 282.11 355.81C280.11 354.89 278.04 353.57 275.77 352.48C273.875 351.481 271.767 350.953 269.625 350.939C267.482 350.925 265.368 351.426 263.46 352.4C261.888 353.238 260.46 354.322 259.23 355.61C259.23 355.61 259.29 355.49 259.43 355.29C259.645 355.002 259.879 354.728 260.13 354.47C261.05 353.511 262.117 352.704 263.29 352.08C265.041 351.138 266.976 350.589 268.96 350.47C271.387 350.372 273.798 350.902 275.96 352.01C278.27 353.12 280.3 354.45 282.27 355.37C283.991 356.232 285.869 356.739 287.79 356.86C289.086 356.936 290.382 356.703 291.57 356.18C292.43 355.79 292.83 355.44 292.86 355.49Z" fill="#F5F5F5"/>
<path d="M304.86 329.83C304.48 330.009 304.089 330.166 303.69 330.3C302.646 330.771 301.643 331.326 300.69 331.96C299.278 332.94 297.762 333.761 296.17 334.41C294.182 335.165 292.066 335.528 289.94 335.48C287.813 335.435 285.716 334.97 283.77 334.11C282.19 333.408 280.732 332.46 279.45 331.3C278.582 330.532 277.81 329.663 277.15 328.71C276.91 328.37 276.75 328.1 276.64 327.91C276.53 327.72 276.49 327.62 276.51 327.61C277.468 328.835 278.536 329.969 279.7 331C280.988 332.087 282.431 332.976 283.98 333.64C285.878 334.453 287.916 334.891 289.98 334.93C292.041 334.969 294.091 334.63 296.03 333.93C297.605 333.311 299.112 332.534 300.53 331.61C301.513 330.997 302.555 330.485 303.64 330.08C304.031 329.933 304.443 329.849 304.86 329.83V329.83Z" fill="#F5F5F5"/>
<path d="M252.47 347.74C252.47 347.79 252.06 347.66 251.34 347.67C250.314 347.705 249.309 347.971 248.4 348.45C247.065 349.21 245.809 350.101 244.65 351.11C243.164 352.347 241.438 353.263 239.58 353.8C236.184 354.78 232.553 354.547 229.31 353.14C228.341 352.721 227.427 352.184 226.59 351.54C226.276 351.312 225.991 351.047 225.74 350.75C226.91 351.548 228.152 352.234 229.45 352.8C232.636 354.071 236.153 354.247 239.45 353.3C243.37 352.3 245.74 349.18 248.26 348.12C249.223 347.648 250.289 347.425 251.36 347.47C251.649 347.482 251.935 347.533 252.21 347.62C252.38 347.68 252.48 347.72 252.47 347.74Z" fill="#F5F5F5"/>
<path d="M246 322.35C244.831 321.653 243.568 321.128 242.25 320.79C240.821 320.465 239.341 320.434 237.9 320.7C236.134 321.001 234.481 321.767 233.11 322.92C231.819 324.193 230.614 325.549 229.5 326.98C228.536 328.178 227.259 329.085 225.81 329.6C224.831 329.968 223.755 329.993 222.76 329.67C222.494 329.581 222.244 329.449 222.02 329.28C221.87 329.17 221.8 329.1 221.81 329.09C221.82 329.08 222.16 329.29 222.81 329.47C223.766 329.703 224.771 329.626 225.68 329.25C227.041 328.711 228.232 327.816 229.13 326.66C230.237 325.193 231.45 323.809 232.76 322.52C234.186 321.314 235.915 320.522 237.76 320.23C239.264 319.975 240.805 320.043 242.28 320.43C243.271 320.68 244.214 321.092 245.07 321.65C245.417 321.829 245.732 322.066 246 322.35Z" fill="#F5F5F5"/>
<path d="M166.53 348.16C166.53 348.11 167.36 348.43 168.9 348.67C171.079 348.974 173.296 348.876 175.44 348.38C178.622 347.628 181.676 346.408 184.5 344.76C187.74 343 191.15 340.76 195.05 338.89C198.726 337.161 202.682 336.104 206.73 335.77C210.026 335.487 213.345 335.669 216.59 336.31C218.773 336.757 220.904 337.427 222.95 338.31C223.68 338.6 224.22 338.9 224.59 339.08C224.785 339.161 224.97 339.265 225.14 339.39C225.14 339.39 224.33 339.06 222.88 338.5C220.82 337.71 218.691 337.114 216.52 336.72C213.304 336.136 210.024 335.991 206.77 336.29C202.784 336.646 198.892 337.699 195.27 339.4C191.42 341.21 188.01 343.47 184.73 345.22C181.859 346.868 178.753 348.068 175.52 348.78C173.329 349.249 171.068 349.293 168.86 348.91C168.265 348.802 167.679 348.645 167.11 348.44C166.905 348.373 166.71 348.279 166.53 348.16Z" fill="#F5F5F5"/>
<path d="M173.8 301.29C173.629 301.433 173.441 301.554 173.24 301.65C172.681 301.95 172.095 302.198 171.49 302.39C169.239 303.051 166.863 303.164 164.56 302.72C162.97 302.443 161.415 301.997 159.92 301.39C158.209 300.689 156.54 299.891 154.92 299C151.51 297.15 147.85 294.93 143.56 293.74C141.481 293.144 139.347 292.759 137.19 292.59C136.19 292.47 135.12 292.5 134.12 292.47C133.12 292.44 132.12 292.47 131.17 292.63C127.766 292.95 124.428 293.765 121.26 295.05C119.133 295.936 117.094 297.021 115.17 298.29C114.49 298.74 114 299.14 113.64 299.38C113.472 299.521 113.287 299.642 113.09 299.74C113.235 299.574 113.399 299.426 113.58 299.3C113.91 299.03 114.39 298.61 115.06 298.12C116.954 296.773 118.986 295.63 121.12 294.71C124.307 293.362 127.677 292.499 131.12 292.15C132.12 292.03 133.12 292.02 134.12 291.97C135.12 291.92 136.19 291.97 137.25 292.08C139.438 292.242 141.603 292.631 143.71 293.24C148.08 294.45 151.78 296.72 155.16 298.57C156.748 299.471 158.388 300.279 160.07 300.99C161.531 301.604 163.053 302.063 164.61 302.36C166.866 302.828 169.199 302.773 171.43 302.2C172.237 301.942 173.028 301.639 173.8 301.29V301.29Z" fill="#F5F5F5"/>
<path d="M242.39 304C242.39 304 242.3 304.11 242.08 304.28C241.773 304.529 241.437 304.74 241.08 304.91C239.694 305.516 238.167 305.724 236.67 305.51C234.458 305.211 232.348 304.396 230.51 303.13C228.39 301.8 226.33 300 223.91 298.54C221.642 297.157 219.086 296.316 216.44 296.08C214.281 295.873 212.103 296.039 210 296.57C208.071 297.12 206.219 297.913 204.49 298.93C204.49 298.93 204.59 298.82 204.81 298.66C205.128 298.412 205.462 298.185 205.81 297.98C207.084 297.208 208.456 296.613 209.89 296.21C212.033 295.618 214.265 295.412 216.48 295.6C219.202 295.824 221.834 296.676 224.17 298.09C226.64 299.59 228.69 301.4 230.76 302.73C232.533 303.972 234.563 304.799 236.7 305.15C238.143 305.387 239.623 305.239 240.99 304.72C241.91 304.36 242.36 304 242.39 304Z" fill="#F5F5F5"/>
<path d="M138 327.8C137.501 327.802 137.003 327.765 136.51 327.69L132.51 327.19L126.51 326.38C124.26 326.07 121.8 325.74 119.2 325.63C116.769 325.495 114.33 325.686 111.95 326.2C110.013 326.637 108.159 327.383 106.46 328.41C104.912 329.399 103.535 330.632 102.38 332.06C102.425 331.939 102.485 331.825 102.56 331.72C102.752 331.403 102.97 331.102 103.21 330.82C104.077 329.758 105.106 328.84 106.26 328.1C107.972 327.002 109.859 326.204 111.84 325.74C114.262 325.186 116.749 324.974 119.23 325.11C121.689 325.243 124.139 325.507 126.57 325.9L132.57 326.82L136.57 327.49C137.056 327.543 137.535 327.647 138 327.8Z" fill="#F5F5F5"/>
<path d="M222.82 227.43C223.244 228.017 223.553 228.678 223.73 229.38C224.232 231.295 224.284 233.301 223.88 235.24C223.49 237.72 222.4 240.49 221.81 243.67C221.491 245.321 221.491 247.019 221.81 248.67C222.248 250.442 222.796 252.186 223.45 253.89C224.121 255.635 224.46 257.49 224.45 259.36C224.337 261.099 223.941 262.808 223.28 264.42C222.1 267.48 220.8 270.14 220.64 272.6C220.356 273.9 220.437 275.253 220.875 276.51C221.313 277.767 222.09 278.878 223.12 279.72C222.952 279.643 222.794 279.546 222.65 279.43C222.219 279.104 221.841 278.713 221.53 278.27C220.454 276.577 220.008 274.559 220.27 272.57C220.384 271.202 220.687 269.856 221.17 268.57C221.65 267.19 222.28 265.76 222.83 264.23C223.459 262.666 223.834 261.012 223.94 259.33C223.94 257.52 223.601 255.725 222.94 254.04C222.28 252.314 221.732 250.547 221.3 248.75C220.959 247.037 220.959 245.273 221.3 243.56C221.93 240.31 223.05 237.56 223.47 235.15C223.891 233.256 223.891 231.294 223.47 229.4C223.299 228.729 223.082 228.071 222.82 227.43V227.43Z" fill="#455A64"/>
<path d="M196.72 281.54C198.47 271.75 200.5 261.48 200.5 261.48C200.5 261.48 213.5 261.61 218.99 245.61C224.25 230.36 228.05 193.61 228.05 193.61C219.733 188.435 210.031 185.928 200.248 186.427C190.464 186.926 181.068 190.406 173.32 196.4V196.4L160.38 276.12C158.88 285.37 165.64 294.03 175.56 295.56C185.58 297.16 195.05 290.86 196.72 281.54Z" fill="#FFBE9D"/>
<path d="M218.39 221.15C218.299 221.701 217.996 222.195 217.545 222.526C217.095 222.856 216.533 222.998 215.98 222.92C215.708 222.893 215.444 222.811 215.204 222.681C214.963 222.551 214.751 222.374 214.58 222.161C214.409 221.947 214.282 221.702 214.206 221.44C214.131 221.177 214.108 220.902 214.14 220.63C214.234 220.08 214.537 219.588 214.987 219.257C215.437 218.927 215.997 218.785 216.55 218.86C216.825 218.879 217.094 218.955 217.338 219.083C217.583 219.21 217.798 219.387 217.971 219.602C218.144 219.818 218.27 220.066 218.342 220.332C218.414 220.599 218.431 220.877 218.39 221.15V221.15Z" fill="#263238"/>
<path d="M222.23 219.39C221.92 219.62 220.53 218.15 218.23 217.76C215.93 217.37 214.09 218.21 213.89 217.88C213.8 217.74 214.15 217.29 214.97 216.88C216.072 216.37 217.306 216.217 218.5 216.44C219.683 216.639 220.77 217.214 221.6 218.08C222.23 218.75 222.38 219.29 222.23 219.39Z" fill="#263238"/>
<path d="M195.07 217.45C194.981 218.002 194.679 218.498 194.228 218.829C193.777 219.16 193.214 219.301 192.66 219.22C192.386 219.201 192.118 219.125 191.875 218.998C191.631 218.871 191.416 218.695 191.243 218.481C191.071 218.267 190.944 218.02 190.871 217.755C190.798 217.489 190.781 217.212 190.82 216.94C190.914 216.389 191.217 215.896 191.666 215.564C192.116 215.232 192.676 215.087 193.23 215.16C193.502 215.187 193.766 215.269 194.006 215.399C194.247 215.529 194.459 215.706 194.63 215.919C194.801 216.133 194.928 216.378 195.004 216.64C195.079 216.903 195.102 217.178 195.07 217.45V217.45Z" fill="#263238"/>
<path d="M198.39 216C198.08 216.23 196.69 214.76 194.39 214.37C192.09 213.98 190.25 214.82 190.05 214.49C189.95 214.35 190.3 213.9 191.13 213.49C192.229 212.98 193.459 212.826 194.65 213.05C195.835 213.251 196.925 213.825 197.76 214.69C198.39 215.4 198.54 215.94 198.39 216Z" fill="#263238"/>
<path d="M203.66 234.33C204.925 234.175 206.205 234.175 207.47 234.33C208.06 234.33 208.63 234.33 208.8 233.97C208.953 233.378 208.922 232.754 208.71 232.18C208.42 230.68 208.1 229.11 207.78 227.47C206.5 220.76 205.69 215.29 205.96 215.24C206.23 215.19 207.48 220.58 208.76 227.29C209.06 228.94 209.34 230.52 209.62 232.02C209.86 232.784 209.824 233.609 209.52 234.35C209.399 234.54 209.236 234.701 209.044 234.819C208.851 234.936 208.635 235.009 208.41 235.03C208.078 235.071 207.742 235.071 207.41 235.03C206.136 234.953 204.876 234.718 203.66 234.33V234.33Z" fill="#263238"/>
<path d="M200.5 261.48C192.73 260.237 185.459 256.858 179.5 251.72C179.5 251.72 182.85 263.97 199.59 265.33L200.5 261.48Z" fill="#EB996E"/>
<path d="M201.74 239.64C201.405 239.019 200.916 238.494 200.321 238.114C199.726 237.734 199.044 237.513 198.34 237.47C197.831 237.425 197.319 237.485 196.834 237.645C196.349 237.805 195.902 238.062 195.52 238.4C195.146 238.724 194.882 239.155 194.764 239.635C194.646 240.115 194.679 240.62 194.86 241.08C195.153 241.551 195.58 241.923 196.086 242.149C196.592 242.376 197.154 242.446 197.7 242.35C198.842 242.166 199.934 241.751 200.91 241.13C201.202 240.997 201.463 240.806 201.68 240.57C201.785 240.46 201.854 240.321 201.879 240.171C201.904 240.022 201.883 239.868 201.82 239.73" fill="#EB996E"/>
<path d="M196.7 234.73C197.08 234.73 196.7 237.24 198.45 239.36C200.2 241.48 202.92 241.67 202.88 242.02C202.88 242.18 202.21 242.39 201.1 242.23C199.653 241.99 198.334 241.255 197.37 240.15C196.453 239.08 195.987 237.696 196.07 236.29C196.16 235.24 196.54 234.68 196.7 234.73Z" fill="#263238"/>
<path d="M184.45 184.69C188.85 194.39 203.1 206.19 214.1 210.38C213.1 208.38 206.92 202.75 205.92 200.75C210.36 205.57 216.77 212.12 223.56 213.75C224.342 214.01 225.183 214.038 225.98 213.83C226.423 213.592 226.806 213.256 227.099 212.846C227.392 212.437 227.588 211.966 227.67 211.47C228.983 206.569 229.761 201.539 229.99 196.47C230.226 192.202 228.82 188.005 226.06 184.74C222.31 180.52 216.19 178.5 210.29 177.25C205.35 176.25 200.18 175.53 195.29 176.47C190.4 177.41 185.87 180.21 184.4 184.34" fill="#263238"/>
<path d="M158.21 221.22C158.126 217.455 158.267 213.688 158.63 209.94C159.74 201.37 162.41 170.23 191.16 178.24L188.1 186.24C188.1 186.24 190.31 206.24 175.55 217.04C175.55 217.04 175.61 237.04 165.4 244.27C165.4 244.27 158.27 230.7 158.21 221.27" fill="#263238"/>
<path d="M176.17 215.67C174.472 214.983 172.618 214.775 170.81 215.07C168.995 215.387 167.378 216.408 166.31 217.91C165.324 219.47 164.967 221.346 165.31 223.16C165.662 224.973 166.421 226.683 167.53 228.16C168.247 229.265 169.213 230.186 170.35 230.85C170.923 231.169 171.566 231.342 172.221 231.354C172.877 231.367 173.526 231.217 174.11 230.92" fill="#FFBE9D"/>
<path d="M173.31 226.16C173.5 226.27 172.55 227.16 171.02 226.48C170.616 226.26 170.26 225.961 169.971 225.603C169.683 225.244 169.468 224.832 169.34 224.39C169.018 223.4 168.893 222.358 168.97 221.32C169.03 220.199 169.487 219.135 170.26 218.32C170.582 217.969 170.98 217.696 171.424 217.523C171.868 217.35 172.345 217.28 172.82 217.32C174.48 217.58 174.82 218.81 174.6 218.81C174.38 218.81 173.9 218.22 172.77 218.29C171.64 218.36 170.43 219.55 170.34 221.37C170.25 223.19 170.62 224.99 171.51 225.57C172.4 226.15 173.23 226 173.31 226.16Z" fill="#EB996E"/>
<path d="M171.8 233.8C169.16 234.8 168.12 238.18 168.53 240.99C168.94 243.8 170.4 246.34 171.39 248.99C172.38 251.64 172.84 254.82 171.32 257.22C170.09 259.17 167.77 260.3 166.82 262.39C165.12 266.13 168.6 270.01 169.82 273.93C170.635 276.577 170.38 279.437 169.109 281.898C167.838 284.358 165.654 286.222 163.024 287.09C160.394 287.958 157.529 287.76 155.044 286.539C152.558 285.318 150.65 283.172 149.73 280.56C146.92 272.56 154.13 263.86 152.1 255.64" fill="#263238"/>
<path d="M169.45 181.63C161.84 187.72 152.97 202.15 152.33 211.87C151.91 218.08 153.08 224.69 150.27 230.24C148.68 233.38 145.98 235.79 143.7 238.48C141.42 241.17 139.45 244.48 139.8 247.99C140.31 252.94 145.22 256.49 146.02 261.4C146.5 264.33 145.43 267.26 144.77 270.16C144.11 273.06 143.96 276.41 145.9 278.66C149.02 282.26 157.8 290.42 160.17 286.28C162.54 282.14 159.77 266.84 159.41 262.08C157.523 236.951 159.787 211.683 166.11 187.29" fill="#263238"/>
<path d="M143.55 272.2C143.917 272.193 144.283 272.146 144.64 272.06C145.065 271.931 145.461 271.724 145.81 271.45C146.276 271.064 146.661 270.588 146.94 270.05C147.301 269.386 147.519 268.653 147.58 267.9C147.64 267.004 147.464 266.107 147.07 265.3C146.011 263.349 144.473 261.701 142.6 260.51C141.6 259.78 140.52 259.04 139.47 258.16C138.341 257.267 137.389 256.171 136.66 254.93C136.298 254.257 136.032 253.537 135.87 252.79C135.723 252.016 135.676 251.226 135.73 250.44C135.892 248.81 136.371 247.226 137.14 245.78C138.64 242.78 141.26 240.37 143.7 237.78C144.964 236.495 146.093 235.084 147.07 233.57C148.022 231.993 148.698 230.265 149.07 228.46C149.85 224.78 149.62 221.05 149.5 217.46C149.44 215.68 149.38 213.91 149.43 212.18C149.43 211.32 149.52 210.46 149.63 209.62C149.68 209.2 149.71 208.78 149.77 208.36L150.01 207.14C151.19 201.368 153.91 196.023 157.88 191.67C159.398 190.019 161.073 188.518 162.88 187.19C163.71 186.64 164.47 186.11 165.2 185.68C165.93 185.25 166.61 184.87 167.2 184.58L168.89 183.81C169.38 183.61 169.82 183.47 170.16 183.35L170.95 183.08C171.037 183.043 171.127 183.016 171.22 183C171.22 183 171.14 183 170.97 183.13L170.2 183.44C169.86 183.59 169.43 183.74 168.95 183.95L167.29 184.76C166.67 185.06 166.02 185.48 165.29 185.89C164.56 186.3 163.83 186.89 163.02 187.42C161.242 188.762 159.595 190.268 158.1 191.92C154.223 196.247 151.574 201.534 150.43 207.23C150.35 207.63 150.28 208.03 150.2 208.44C150.12 208.85 150.11 209.26 150.07 209.67C149.96 210.5 149.91 211.34 149.88 212.2C149.88 213.91 149.88 215.66 149.96 217.44C150.09 221 150.33 224.76 149.53 228.54C149.14 230.402 148.437 232.184 147.45 233.81C146.452 235.353 145.3 236.791 144.01 238.1C141.54 240.69 139.01 243.03 137.51 245.95C136.766 247.337 136.297 248.855 136.13 250.42C136.074 251.165 136.114 251.915 136.25 252.65C136.396 253.348 136.641 254.022 136.98 254.65C137.671 255.854 138.584 256.916 139.67 257.78C140.67 258.65 141.76 259.4 142.76 260.14C144.665 261.395 146.217 263.116 147.27 265.14C147.677 265.993 147.849 266.938 147.77 267.88C147.69 268.665 147.449 269.424 147.06 270.11C146.756 270.66 146.344 271.142 145.85 271.53C145.479 271.806 145.058 272.006 144.61 272.12C144.339 272.189 144.059 272.216 143.78 272.2H143.55Z" fill="#263238"/>
<path d="M155.1 285.67C154.99 285.655 154.882 285.624 154.78 285.58C154.484 285.441 154.218 285.244 154 285C153.588 284.522 153.29 283.957 153.127 283.348C152.965 282.738 152.942 282.1 153.06 281.48C153.25 279.81 154.53 278.19 155.56 276.2C156.099 275.129 156.386 273.949 156.4 272.75C156.386 271.404 156.125 270.072 155.63 268.82C155.097 267.424 154.427 266.084 153.63 264.82C152.8 263.51 151.81 262.21 150.87 260.82C149.86 259.376 149.002 257.831 148.31 256.21C147.549 254.469 147.286 252.551 147.55 250.67C147.931 248.707 148.852 246.888 150.21 245.42C151.51 243.88 153.04 242.54 154.47 241.06C155.936 239.604 157.149 237.914 158.06 236.06C158.946 234.112 159.552 232.048 159.86 229.93C160.54 225.63 160.36 221.34 160.4 217.21C160.4 215.14 160.47 213.1 160.64 211.12L160.79 209.63L161.03 208.18C161.184 207.223 161.391 206.274 161.65 205.34C163.454 198.81 167.037 192.911 172 188.3C173.917 186.547 176.004 184.989 178.23 183.65C179.23 183.11 180.16 182.57 181.05 182.17C181.94 181.77 182.76 181.39 183.52 181.17L185.52 180.48C186.11 180.3 186.63 180.2 187.04 180.09L187.98 179.87C188.085 179.843 188.192 179.823 188.3 179.81C188.201 179.858 188.097 179.895 187.99 179.92L187.06 180.19C186.66 180.31 186.15 180.44 185.57 180.62L183.57 181.36C182.82 181.63 182.03 182.04 181.14 182.43C180.25 182.82 179.35 183.43 178.36 183.94C176.171 185.291 174.121 186.856 172.24 188.61C167.329 193.219 163.8 199.106 162.05 205.61C161.788 206.526 161.587 207.458 161.45 208.4L161.21 209.83L161.06 211.3C160.9 213.3 160.84 215.3 160.84 217.3C160.983 221.574 160.806 225.853 160.31 230.1C159.988 232.266 159.366 234.376 158.46 236.37C157.527 238.287 156.276 240.032 154.76 241.53C153.32 243.02 151.76 244.36 150.52 245.85C149.216 247.245 148.329 248.977 147.96 250.85C147.698 252.648 147.944 254.484 148.67 256.15C149.338 257.745 150.169 259.266 151.15 260.69C152.08 262.08 153.07 263.39 153.9 264.69C154.716 265.953 155.406 267.293 155.96 268.69C156.451 269.991 156.705 271.369 156.71 272.76C156.686 274.004 156.375 275.226 155.8 276.33C154.72 278.33 153.45 279.92 153.24 281.51C153.116 282.105 153.125 282.721 153.267 283.312C153.409 283.903 153.679 284.456 154.06 284.93C154.35 285.248 154.704 285.501 155.1 285.67V285.67Z" fill="#455A64"/>
<path d="M225.58 213.51C225.454 213.39 225.344 213.256 225.25 213.11L224.39 211.88C223.61 210.75 222.56 209.21 221.29 207.34L211.21 192.25C209.398 189.475 207.237 186.944 204.78 184.72C202.754 182.937 200.366 181.613 197.78 180.84C196.037 180.32 194.209 180.15 192.4 180.34C191.12 180.5 190.4 180.74 190.4 180.68C190.553 180.599 190.714 180.536 190.88 180.49C191.359 180.332 191.851 180.215 192.35 180.14C194.19 179.867 196.067 179.983 197.86 180.48C200.52 181.221 202.982 182.543 205.07 184.35C207.58 186.582 209.783 189.138 211.62 191.95C215.62 197.85 219.05 203.24 221.62 207.13C222.83 209.04 223.84 210.61 224.62 211.77L225.4 213.05C225.481 213.194 225.542 213.349 225.58 213.51Z" fill="#455A64"/>
<path d="M183.12 274.8L196.03 330.33L207.37 328.33L198.29 272.2L183.12 274.8Z" fill="#263238"/>
<path d="M194.68 267.66C198.39 266.44 199.47 259.93 199.47 256.03C199.47 250.75 194.81 248.12 190.94 247.61C188.993 247.396 187.027 247.774 185.299 248.695C183.57 249.615 182.159 251.035 181.25 252.77C180.393 254.533 180.054 256.502 180.274 258.45C180.494 260.397 181.262 262.242 182.49 263.77C183.758 265.262 185.399 266.39 187.245 267.04C189.092 267.69 191.077 267.839 193 267.47" fill="#263238"/>
<path d="M174.68 265.1L177.64 288.08L212.33 280.69L206.25 260.19L174.68 265.1Z" fill="#B1BAB0"/>
<g opacity="0.4">
<path opacity="0.4" d="M207.94 265.89L183.12 269.2L185.73 278.64L210.38 274.14L207.94 265.89Z" fill="#FAFAFA"/>
</g>
<path d="M199.47 256.58C198.552 256.842 197.611 257.016 196.66 257.1C194.92 257.34 192.5 257.6 189.82 257.77C187.14 257.94 184.71 258 182.95 257.98C181.997 258.027 181.042 257.976 180.1 257.83C181.038 257.671 181.989 257.598 182.94 257.61C184.7 257.53 187.12 257.42 189.79 257.25C192.46 257.08 194.87 256.88 196.62 256.73C197.563 256.593 198.517 256.542 199.47 256.58V256.58Z" fill="#FAFAFA"/>
<path d="M185.8 286.34L200.08 283.3V284.7L186.05 287.4L185.8 286.34Z" fill="#263238"/>
<path d="M162.6 317.18L168.76 313.94C168.76 313.94 178.99 292.19 181.82 291.05C184.15 290.11 197.37 286.15 201.97 284.77C202.392 284.645 202.846 284.692 203.233 284.9C203.621 285.107 203.911 285.46 204.04 285.88V285.88C204.173 286.287 204.143 286.73 203.956 287.116C203.77 287.502 203.442 287.801 203.04 287.95L187.66 293.39L187.98 294.67L203.59 290C205.22 289.63 207.02 291.83 202.08 293.86L189.18 298.37L189.43 299.18L203.23 296.93C203.92 296.81 205.79 296.61 206.01 297.28C206.01 297.28 207.33 298.69 203.71 300.33C202.46 300.89 190.87 304.07 190.87 304.07L191.63 304.97L204.31 303.84C204.755 303.804 205.196 303.936 205.548 304.21C205.9 304.484 206.136 304.88 206.21 305.32V305.32C206.279 305.766 206.174 306.222 205.917 306.594C205.661 306.966 205.272 307.226 204.83 307.32L191.77 310.09L184.72 320.48C183.219 322.698 181.008 324.338 178.45 325.13L165.74 329.08L162.6 317.18Z" fill="#FFBE9D"/>
<path d="M202 284.77C202 284.77 201.85 284.86 201.56 284.97L200.24 285.43L195.37 287L188.16 289.31L183.89 290.65L182.78 291L182.21 291.18C182.031 291.221 181.859 291.289 181.7 291.38C181.077 291.843 180.536 292.407 180.1 293.05C178.343 295.579 176.757 298.221 175.35 300.96C174.01 303.47 172.85 305.76 171.89 307.69L169.63 312.26C169.38 312.76 169.18 313.17 169.01 313.5C168.84 313.83 168.78 313.93 168.76 313.92C168.789 313.761 168.839 313.606 168.91 313.46L169.45 312.18C169.93 311.07 170.64 309.48 171.56 307.53C172.48 305.58 173.56 303.27 174.92 300.74C176.32 297.967 177.911 295.294 179.68 292.74C180.155 292.038 180.751 291.425 181.44 290.93C181.63 290.827 181.831 290.746 182.04 290.69L182.61 290.51L183.73 290.17L188.01 288.85L195.26 286.65L200.16 285.21L201.49 284.85C201.657 284.805 201.828 284.779 202 284.77V284.77Z" fill="#EB996E"/>
<path d="M93.26 397.9C95.5561 400.082 98.2781 401.766 101.255 402.847C104.233 403.927 107.401 404.382 110.562 404.181C113.723 403.98 116.809 403.128 119.625 401.679C122.442 400.23 124.929 398.215 126.93 395.76L180.93 329.16L161.73 304.8L94 364C91.6032 366.103 89.6697 368.681 88.3225 371.571C86.9752 374.461 86.2436 377.599 86.174 380.787C86.1044 383.975 86.6984 387.142 87.9183 390.088C89.1381 393.034 90.9572 395.695 93.26 397.9V397.9Z" fill="#929683"/>
<path d="M130.11 393C130.11 393 130.18 392.88 130.34 392.66C130.5 392.44 130.75 392.12 131.06 391.72L133.89 388.09L144.5 374.65L180.74 329V329.31L167.43 312.45L161.53 304.96H161.9C142.17 322.32 124.98 338.19 112.43 349.4C106.17 355.02 101.11 359.52 97.59 362.59L93.59 366.1L92.53 367L92.16 367.3C92.16 367.3 92.27 367.18 92.5 366.97L93.5 366.03L97.5 362.44L112.24 349.14C124.72 337.86 141.87 321.95 161.6 304.57L161.81 304.39L161.98 304.61L167.88 312.09L181.14 329L181.26 329.16L181.14 329.32L144.76 374.87L134 388.22L131.11 391.8L130.35 392.71L130.11 393Z" fill="#263238"/>
<path d="M137 383.73C136.666 384.363 136.203 384.918 135.64 385.36C134.085 386.563 132.176 387.217 130.21 387.22C128.86 387.269 127.51 387.107 126.21 386.74C124.738 386.297 123.314 385.708 121.96 384.98C119.09 383.51 116.17 381.44 112.67 380.33C109.372 379.281 105.889 378.94 102.45 379.33C99.6458 379.676 96.9167 380.476 94.37 381.7C92.6552 382.537 91.0414 383.567 89.56 384.77C88.56 385.65 87.99 386.17 87.96 386.13C87.93 386.09 88.07 385.98 88.31 385.72C88.55 385.46 88.92 385.06 89.43 384.62C90.8797 383.339 92.4858 382.247 94.21 381.37C96.7742 380.075 99.5405 379.226 102.39 378.86C105.897 378.411 109.46 378.732 112.83 379.8C116.43 380.94 119.36 383.04 122.19 384.51C123.505 385.242 124.892 385.835 126.33 386.28C127.581 386.657 128.884 386.836 130.19 386.81C132.094 386.843 133.959 386.264 135.51 385.16C136.044 384.724 136.542 384.246 137 383.73V383.73Z" fill="#F5F5F5"/>
<path d="M163.69 349.94C163.69 349.94 163.56 350.07 163.29 350.26C162.88 350.54 162.449 350.788 162 351C160.396 351.832 158.648 352.348 156.85 352.52C154.166 352.773 151.464 352.271 149.05 351.07C146.31 349.77 143.73 347.68 140.77 345.98C137.963 344.415 134.892 343.377 131.71 342.92C129.11 342.543 126.47 342.543 123.87 342.92C122.116 343.17 120.391 343.592 118.72 344.18C117.54 344.6 116.89 344.88 116.88 344.84C116.87 344.8 117.02 344.74 117.32 344.59C117.752 344.367 118.196 344.166 118.65 343.99C120.316 343.323 122.049 342.84 123.82 342.55C126.467 342.116 129.163 342.083 131.82 342.45C135.067 342.885 138.202 343.93 141.06 345.53C144.06 347.26 146.63 349.35 149.29 350.64C151.627 351.828 154.246 352.35 156.86 352.15C158.623 352.014 160.346 351.564 161.95 350.82C163.08 350.31 163.66 349.9 163.69 349.94Z" fill="#F5F5F5"/>
<path d="M314.45 292.33C314.395 292.73 314.294 293.123 314.15 293.5C313.93 294.24 313.56 295.31 313.06 296.6C312.56 297.89 311.91 299.42 311.11 301.07C310.738 301.997 310.18 302.838 309.47 303.54C309.257 303.74 309.005 303.894 308.729 303.991C308.454 304.089 308.161 304.128 307.869 304.106C307.578 304.084 307.294 304.003 307.036 303.865C306.778 303.728 306.551 303.539 306.37 303.31C305.997 302.871 305.752 302.338 305.66 301.77C305.595 301.234 305.632 300.692 305.77 300.17C306.045 299.235 306.406 298.328 306.85 297.46L308.85 293.04L310.27 290.04C310.427 289.669 310.625 289.317 310.86 288.99C310.768 289.383 310.634 289.765 310.46 290.13C310.11 290.94 309.69 291.95 309.18 293.13C308.67 294.31 307.96 295.94 307.18 297.59C306.779 298.439 306.445 299.319 306.18 300.22C306.07 300.682 306.043 301.159 306.1 301.63C306.171 302.102 306.372 302.545 306.68 302.91C306.818 303.088 306.992 303.235 307.19 303.342C307.389 303.448 307.607 303.511 307.832 303.527C308.057 303.544 308.282 303.512 308.494 303.435C308.705 303.358 308.898 303.237 309.06 303.08C309.719 302.429 310.243 301.654 310.6 300.8C311.42 299.17 312.1 297.67 312.6 296.4C313.1 295.13 313.6 294.09 313.84 293.4C314.002 293.021 314.207 292.662 314.45 292.33V292.33Z" fill="#EB996E"/>
<path d="M310.62 306.42C310.62 306.5 309.94 306.25 308.78 306.2C307.231 306.134 305.701 306.561 304.41 307.42L303.99 307.71V307.2C304.045 306.264 304.045 305.326 303.99 304.39C303.833 302.181 303.361 300.006 302.59 297.93C302 296.33 301.48 295.4 301.59 295.36C302.181 296.088 302.648 296.909 302.97 297.79C303.864 299.871 304.399 302.09 304.55 304.35C304.615 305.309 304.615 306.271 304.55 307.23L304.16 307.01C305.545 306.111 307.198 305.716 308.84 305.89C309.467 305.922 310.078 306.104 310.62 306.42V306.42Z" fill="#EB996E"/>
<path d="M317.87 297.88C317.82 298.204 317.719 298.518 317.57 298.81C317.35 299.39 317.01 300.23 316.57 301.26L315.86 302.95C315.599 303.622 315.263 304.262 314.86 304.86C314.625 305.209 314.32 305.506 313.966 305.733C313.612 305.96 313.215 306.112 312.8 306.18C312.333 306.256 311.855 306.163 311.45 305.92C311.045 305.659 310.736 305.272 310.57 304.82C310.304 303.978 310.267 303.081 310.46 302.22C310.604 301.447 310.815 300.687 311.09 299.95C311.555 298.716 312.1 297.514 312.72 296.35L314 294C314.125 293.696 314.289 293.41 314.49 293.15C314.139 294.312 313.677 295.437 313.11 296.51C312.65 297.51 312.11 298.73 311.6 300.11C311.35 300.827 311.156 301.563 311.02 302.31C310.853 303.082 310.887 303.885 311.12 304.64C311.236 304.977 311.467 305.262 311.772 305.445C312.078 305.628 312.438 305.697 312.79 305.64C313.141 305.585 313.478 305.46 313.779 305.271C314.079 305.081 314.339 304.833 314.54 304.54C314.933 303.979 315.268 303.379 315.54 302.75L316.3 301.08C316.78 300.08 317.17 299.25 317.45 298.69C317.553 298.402 317.694 298.13 317.87 297.88Z" fill="#EB996E"/>
<path d="M174.453 122.453C174.953 122.297 175.375 122.375 175.719 122.688C176.438 122.906 177.016 123.547 177.453 124.609C178.016 125.891 178.797 129.922 179.797 136.703C180.141 139.266 180.438 140.688 180.688 140.969C180.906 141.094 181.406 141.203 182.188 141.297C183.781 141.422 184.75 141.656 185.094 142C185.531 142.594 185.359 143.172 184.578 143.734C184.359 143.859 183.734 143.922 182.703 143.922C181.703 144.016 181.203 144.094 181.203 144.156C181.109 144.438 181.469 146.281 182.281 149.688C182.75 151.531 183 152.812 183.031 153.531C183.094 154.25 182.984 154.797 182.703 155.172C182.453 155.453 182.125 155.531 181.719 155.406C181.344 155.281 181.094 154.984 180.969 154.516L180.922 154.188C180.859 154 180.797 153.734 180.734 153.391C180.672 153.047 180.609 152.75 180.547 152.5C180.328 150.875 179.984 149.156 179.516 147.344C179.078 145.5 178.781 144.516 178.625 144.391C178.312 144.141 175.906 144.016 171.406 144.016C168.25 144.016 166.219 144.062 165.312 144.156C164.406 144.25 163.812 144.438 163.531 144.719C163.219 145.062 162.984 145.953 162.828 147.391C162.391 150.547 162.25 152.25 162.406 152.5C162.406 152.656 162.578 152.797 162.922 152.922C163.609 153.266 163.875 153.656 163.719 154.094C163.625 154.531 163.375 154.938 162.969 155.312C162.594 155.719 162.203 155.922 161.797 155.922C161.266 155.922 160.844 155.578 160.531 154.891C160.062 153.797 160.203 151.125 160.953 146.875C161.016 146.438 161.109 145.938 161.234 145.375C161.391 144.594 161.406 144.188 161.281 144.156C161.094 143.906 160.25 143.828 158.75 143.922C157.719 143.922 157.141 143.859 157.016 143.734C156.578 143.453 156.359 142.938 156.359 142.188C156.266 141.344 156.484 140.812 157.016 140.594C157.234 140.469 157.641 140.422 158.234 140.453C158.859 140.453 159.266 140.547 159.453 140.734C159.984 140.891 160.531 140.969 161.094 140.969H162.266L163.016 139.047C163.797 137.141 164.594 135.422 165.406 133.891C166.75 131.328 168.25 128.844 169.906 126.438C171.5 124.188 173.016 122.859 174.453 122.453ZM174.641 124.609C174.141 124.203 173.672 124.094 173.234 124.281C172.922 124.562 172.312 125.391 171.406 126.766C169.656 129.484 168.094 132.219 166.719 134.969C165.375 137.719 164.656 139.594 164.562 140.594L164.422 141.203H171.266C175.984 141.203 178.344 141.125 178.344 140.969C178.344 140.281 178.078 138.562 177.547 135.812C176.984 132.062 176.484 129.359 176.047 127.703C175.641 126.016 175.172 124.984 174.641 124.609ZM192.172 120.859C192.422 120.703 192.656 120.734 192.875 120.953C193.469 121.734 193.719 124.609 193.625 129.578C193.625 132.359 193.703 133.812 193.859 133.938C193.953 134 194.641 133.859 195.922 133.516C198.641 132.797 201.125 132.875 203.375 133.75C204.688 134.188 206.031 134.797 207.406 135.578C208.812 136.359 209.844 137.078 210.5 137.734C211.875 139.203 212.391 141.281 212.047 143.969C211.828 145.469 210.703 147.188 208.672 149.125C207.453 150.312 205.906 151.422 204.031 152.453C202.156 153.484 200.484 154.156 199.016 154.469C197.734 154.75 196.625 154.75 195.688 154.469C195.094 154.312 194.328 153.891 193.391 153.203C192.453 152.484 191.688 151.703 191.094 150.859L190.391 149.875V148.703C190.391 147.422 190.422 146.453 190.484 145.797C190.703 143.734 190.938 139.719 191.188 133.75C191.594 125.344 191.922 121.047 192.172 120.859ZM201.5 136.047C199.719 135.672 198.422 135.594 197.609 135.812C195.766 136.406 194.438 137.047 193.625 137.734C193.469 137.922 193.375 138.109 193.344 138.297C193.312 138.484 193.375 138.594 193.531 138.625C193.625 138.625 193.734 138.797 193.859 139.141C193.859 139.484 193.828 139.734 193.766 139.891C193.359 140.922 193.109 142.891 193.016 145.797C192.953 147.578 192.953 148.703 193.016 149.172C193.109 149.609 193.438 150.141 194 150.766C194.938 151.891 196.219 152.406 197.844 152.312C199.625 152.188 201.719 151.25 204.125 149.5C206.562 147.75 208.156 146.047 208.906 144.391C209.469 143.203 209.594 142.141 209.281 141.203C208.938 140.172 208.422 139.453 207.734 139.047C207.172 138.609 206.578 138.219 205.953 137.875C204.422 136.875 202.938 136.266 201.5 136.047ZM225.688 131.922C227.219 131.734 228.5 131.891 229.531 132.391C231.312 132.922 232.828 134.156 234.078 136.094C235.859 138.781 236.516 141.922 236.047 145.516C235.734 148.172 234.969 150.203 233.75 151.609C233.031 152.516 232.203 153.094 231.266 153.344C230.328 153.594 228.938 153.656 227.094 153.531C223.719 153.25 221.359 152.609 220.016 151.609C219.484 151.172 218.844 150.531 218.094 149.688C217.344 148.812 216.859 148.125 216.641 147.625C216.516 147.438 216.25 146.828 215.844 145.797C215.562 144.641 215.531 143.297 215.75 141.766C215.969 140.203 216.422 138.922 217.109 137.922C218.109 136.391 219.078 135.25 220.016 134.5C221.516 133.406 223.406 132.547 225.688 131.922ZM229.062 135.25C228.75 135.094 228.156 134.984 227.281 134.922C226.438 134.859 225.75 134.922 225.219 135.109C223.312 135.609 221.812 136.734 220.719 138.484C220.25 139.172 219.984 139.516 219.922 139.516C219.797 139.516 219.547 139.766 219.172 140.266C218.828 140.734 218.531 141.188 218.281 141.625C217.844 142.625 217.766 143.531 218.047 144.344C218.391 145.438 219 146.531 219.875 147.625C220.781 148.719 221.672 149.438 222.547 149.781C223.359 150.125 224.531 150.391 226.062 150.578C227.594 150.766 228.797 150.781 229.672 150.625C230.828 150.375 231.688 149.859 232.25 149.078C233.469 147.672 234.078 145.766 234.078 143.359C234.078 141.828 233.75 140.547 233.094 139.516C232.625 138.641 231.984 137.781 231.172 136.938C230.359 136.062 229.656 135.5 229.062 135.25ZM257.75 150.438C257.812 150.75 257.891 151 257.984 151.188C258.172 151.688 258.266 151.969 258.266 152.031C258.266 152.531 258.078 152.938 257.703 153.25C257.328 153.531 256.984 153.547 256.672 153.297C256.422 153.141 256.078 152.688 255.641 151.938C255.234 150.719 254.969 149.531 254.844 148.375C254.719 147.844 254.641 147.484 254.609 147.297C254.578 147.078 254.531 146.875 254.469 146.688C254.438 146.5 254.359 146.469 254.234 146.594C254.141 146.688 254.031 146.812 253.906 146.969C253.812 147.125 253.656 147.406 253.438 147.812C252.5 149.469 251.719 150.656 251.094 151.375C250.5 152.094 249.828 152.672 249.078 153.109C247.891 153.672 246.766 153.828 245.703 153.578C244.672 153.328 243.797 152.594 243.078 151.375C241.953 149.719 241.203 146.828 240.828 142.703C240.797 142.578 240.719 141.891 240.594 140.641C240.5 139.391 240.375 138.516 240.219 138.016C240.094 136.734 240.047 135.844 240.078 135.344C240.141 134.812 240.391 134.172 240.828 133.422C241.109 132.828 241.344 132.406 241.531 132.156C241.75 131.875 241.984 131.75 242.234 131.781C242.609 131.781 242.859 132.219 242.984 133.094C243.141 133.938 243.328 136.094 243.547 139.562C243.703 143.656 243.875 146.156 244.062 147.062C244.281 147.938 244.781 148.797 245.562 149.641L246.219 150.484H247.062C247.562 150.422 247.938 150.344 248.188 150.25C248.438 150.156 248.797 149.859 249.266 149.359C249.859 148.734 250.484 147.75 251.141 146.406C251.797 145.031 252.297 143.703 252.641 142.422C252.984 140.484 252.984 138.766 252.641 137.266C252.484 136.109 252.406 135.141 252.406 134.359C252.281 132.859 252.5 131.969 253.062 131.688C254.094 131.188 254.734 131.5 254.984 132.625C255.141 133.031 255.422 134.609 255.828 137.359C256.266 140.078 256.562 142.25 256.719 143.875C257.094 146.844 257.438 149.031 257.75 150.438ZM268.344 130C268.625 129.688 268.953 129.641 269.328 129.859C269.484 130.016 269.562 130.859 269.562 132.391C269.469 133.984 269.5 134.781 269.656 134.781C270.219 134.781 270.75 134.812 271.25 134.875C272 134.938 273.75 134.828 276.5 134.547C277.344 134.422 277.938 134.453 278.281 134.641C278.562 134.766 278.781 134.984 278.938 135.297C279.188 135.891 279.094 136.391 278.656 136.797C278.281 137.016 277.734 137.188 277.016 137.312C275.734 137.562 274.156 137.688 272.281 137.688L269.094 137.781L268.953 138.859C268.891 139.641 268.875 140.891 268.906 142.609C268.938 144.297 269 145.484 269.094 146.172C269.219 147.984 269.656 149.484 270.406 150.672C271.188 151.859 272.062 152.359 273.031 152.172C273.469 152.109 274.828 151.031 277.109 148.938C278.797 147.344 279.875 146.391 280.344 146.078C280.812 145.734 281.141 145.734 281.328 146.078C281.484 146.328 281.203 146.953 280.484 147.953C279.766 148.953 278.719 150.125 277.344 151.469C275.688 153.25 274.328 154.281 273.266 154.562C271.547 155.031 270.062 154.359 268.812 152.547C268.031 151.484 267.516 150.359 267.266 149.172C267.047 147.953 266.844 145.594 266.656 142.094C266.562 140.656 266.516 139.219 266.516 137.781C266.516 137.625 266.469 137.516 266.375 137.453C266.281 137.391 266.078 137.297 265.766 137.172C265.641 137.141 265.547 137.109 265.484 137.078C264.203 136.766 263.406 136.594 263.094 136.562C262.875 136.562 262.625 136.484 262.344 136.328C262.156 136.297 261.984 136.125 261.828 135.812C261.703 135.469 261.641 135.156 261.641 134.875C261.641 134.531 261.828 134.312 262.203 134.219C262.609 134.125 263.547 134.109 265.016 134.172L267.031 134.312V133.844C267.031 133.312 267.172 132.625 267.453 131.781C267.734 130.938 268.031 130.344 268.344 130ZM327.125 150.438C327.188 150.75 327.266 151 327.359 151.188C327.547 151.688 327.641 151.969 327.641 152.031C327.641 152.531 327.453 152.938 327.078 153.25C326.703 153.531 326.359 153.547 326.047 153.297C325.797 153.141 325.453 152.688 325.016 151.938C324.609 150.719 324.344 149.531 324.219 148.375C324.094 147.844 324.016 147.484 323.984 147.297C323.953 147.078 323.906 146.875 323.844 146.688C323.812 146.5 323.734 146.469 323.609 146.594C323.516 146.688 323.406 146.812 323.281 146.969C323.188 147.125 323.031 147.406 322.812 147.812C321.875 149.469 321.094 150.656 320.469 151.375C319.875 152.094 319.203 152.672 318.453 153.109C317.266 153.672 316.141 153.828 315.078 153.578C314.047 153.328 313.172 152.594 312.453 151.375C311.328 149.719 310.578 146.828 310.203 142.703C310.172 142.578 310.094 141.891 309.969 140.641C309.875 139.391 309.75 138.516 309.594 138.016C309.469 136.734 309.422 135.844 309.453 135.344C309.516 134.812 309.766 134.172 310.203 133.422C310.484 132.828 310.719 132.406 310.906 132.156C311.125 131.875 311.359 131.75 311.609 131.781C311.984 131.781 312.234 132.219 312.359 133.094C312.516 133.938 312.703 136.094 312.922 139.562C313.078 143.656 313.25 146.156 313.438 147.062C313.656 147.938 314.156 148.797 314.938 149.641L315.594 150.484H316.438C316.938 150.422 317.312 150.344 317.562 150.25C317.812 150.156 318.172 149.859 318.641 149.359C319.234 148.734 319.859 147.75 320.516 146.406C321.172 145.031 321.672 143.703 322.016 142.422C322.359 140.484 322.359 138.766 322.016 137.266C321.859 136.109 321.781 135.141 321.781 134.359C321.656 132.859 321.875 131.969 322.438 131.688C323.469 131.188 324.109 131.5 324.359 132.625C324.516 133.031 324.797 134.609 325.203 137.359C325.641 140.078 325.938 142.25 326.094 143.875C326.469 146.844 326.812 149.031 327.125 150.438ZM343.297 131.266C343.703 131.203 344.266 131.266 344.984 131.453C345.703 131.641 346.312 131.875 346.812 132.156C348.281 133.094 348.844 134.078 348.5 135.109C348.312 135.891 347.984 136.422 347.516 136.703C347.109 137.016 346.75 136.828 346.438 136.141C346.219 135.641 345.844 135.203 345.312 134.828C344.781 134.422 344.234 134.188 343.672 134.125C343.328 134.125 342.609 134.25 341.516 134.5C340.422 134.75 339.578 135.031 338.984 135.344C338.141 135.875 337.656 136.406 337.531 136.938C337.438 137.469 338.312 138.141 340.156 138.953C343.844 140.828 346.016 141.953 346.672 142.328C347.391 142.797 348.156 143.484 348.969 144.391C349.781 145.297 350.422 146.094 350.891 146.781C351.297 147.625 351.297 148.625 350.891 149.781C350.453 150.719 349.844 151.562 349.062 152.312C348.281 153.062 347.062 153.688 345.406 154.188C343.531 154.719 341.672 154.797 339.828 154.422C338.016 154.109 336.594 153.594 335.562 152.875C334.531 152.156 333.719 151.5 333.125 150.906C332.156 149.781 331.672 148.797 331.672 147.953C331.578 147.672 331.656 147.203 331.906 146.547C332.281 145.766 332.719 145.391 333.219 145.422C333.406 145.422 333.5 145.5 333.5 145.656C333.531 145.812 333.484 146.234 333.359 146.922C333.797 148.141 334.516 149.188 335.516 150.062C337.016 151.344 339.031 151.984 341.562 151.984C344.094 151.953 346.031 151.312 347.375 150.062C348.5 149.188 348.703 148.141 347.984 146.922C347.547 146.141 346.953 145.484 346.203 144.953C345.484 144.391 344.203 143.672 342.359 142.797C339.422 141.266 337.406 140.078 336.312 139.234C335.219 138.359 334.672 137.484 334.672 136.609C334.672 135.984 334.906 135.422 335.375 134.922C335.844 134.422 336.797 133.703 338.234 132.766C339.453 131.984 341.141 131.484 343.297 131.266Z" fill="#737D67"/>
</svg>
