<svg width="642" height="609" viewBox="0 0 642 609" fill="none" xmlns="http://www.w3.org/2000/svg">
<path d="M563 303C563.03 343.138 553.346 382.687 534.773 418.269C516.201 453.85 489.292 484.408 456.346 507.33C455.745 507.759 455.123 508.189 454.5 508.597C450.894 511.087 447.216 513.469 443.467 515.745C438.187 518.964 432.785 521.991 427.262 524.825C423.914 526.542 420.544 528.173 417.11 529.719C416.251 530.105 415.372 530.513 414.491 530.878C408.503 533.54 402.385 535.965 396.161 538.112C379.903 543.813 363.09 547.785 345.999 549.961C335.394 551.325 324.711 552.006 314.018 552C308.632 552 303.266 551.828 297.963 551.485C293.327 551.184 288.734 550.776 284.184 550.218C276.864 549.338 269.631 548.158 262.505 546.634C262.269 546.591 262.011 546.526 261.776 546.483C246.971 543.352 232.492 538.846 218.525 533.024C214.727 531.436 210.971 529.783 207.278 528.001C202.621 525.812 198.056 523.472 193.585 520.982C155.154 499.748 123.02 468.728 100.443 431.068C77.865 393.408 65.6462 350.447 65.0249 306.542C64.4037 262.636 75.4022 219.347 96.9052 181.063C118.408 142.78 149.651 110.863 187.466 88.5493C225.281 66.2356 268.324 54.3186 312.229 54.0063C356.135 53.694 399.342 64.9976 437.471 86.7711C475.599 108.545 507.293 140.014 529.338 177.988C551.384 215.961 562.997 259.09 563 303V303Z" fill="#F1F1F1"/>
<path d="M307.5 364C338.152 364 363 339.152 363 308.5C363 277.848 338.152 253 307.5 253C276.848 253 252 277.848 252 308.5C252 339.152 276.848 364 307.5 364Z" fill="#FFB8B8"/>
<path d="M284.572 550.22C277.289 549.341 270.091 548.161 263 546.638L269.728 394.614L270.689 393.606L284.465 379H328.272L344.44 394.721L345.807 396.073L380.387 429.339L396 538.123C379.822 543.82 363.091 547.788 346.085 549.963C335.531 551.325 324.901 552.006 314.261 552C308.9 552 303.56 551.828 298.284 551.485C293.671 551.185 289.101 550.778 284.572 550.22Z" fill="#CBCBCB"/>
<path d="M207.427 527.478C202.776 525.285 198.217 522.941 193.751 520.447C193.3 479.165 193 451.751 193 451.751L198.231 448.548C198.293 448.515 198.357 448.486 198.423 448.462L257.783 412.297L270.238 392L270.303 392.731L273.969 435.518C285.008 473.315 293.043 511.93 298 551C293.369 550.699 288.782 550.29 284.237 549.731C276.927 548.85 269.702 547.667 262.586 546.141C262.35 546.098 262.092 546.033 261.857 545.99C247.071 542.854 232.61 538.341 218.66 532.509C214.866 530.918 211.115 529.263 207.427 527.478Z" fill="#2F2E41"/>
<path d="M396.004 538.092C379.854 543.822 363.151 547.813 346.173 550C343.82 536.076 342.955 521.936 343.593 507.825C348.199 433.334 337.58 392 342.186 392L344.531 393.855L373.509 417.025L411.655 431.176H411.677L437.925 440.906L442.552 442.632V444.854C442.573 452.534 442.616 479.414 443 515.613C437.755 518.849 432.388 521.891 426.901 524.738C423.575 526.464 420.227 528.104 416.816 529.657C415.962 530.045 415.089 530.455 414.214 530.822C408.265 533.497 402.188 535.935 396.004 538.092Z" fill="#2F2E41"/>
<path d="M254.341 326C254.341 326 259.085 317.716 257.982 290.042C256.879 262.368 299.257 278.02 334.669 275.38C370.08 272.74 362.584 321.583 362.584 321.583C362.584 321.583 365.139 318.679 370.608 295.106C376.078 271.534 363.659 248.043 363.659 248.043C360.002 223.272 340.29 231.211 340.29 231.211C349.783 234.886 347.96 242.744 347.96 242.744C339.924 228.734 320.212 236.673 320.212 236.673C293.923 220.268 267.278 241.872 267.278 241.872C235.519 249.039 254.145 274.154 254.145 274.154C222.205 290.205 254.341 326 254.341 326Z" fill="#2F2E41"/>
<path d="M167 503.644C167.803 484.749 168.162 472.56 167.739 470.862C165.565 462.006 195.243 450.139 197.945 449.086C198.006 449.053 198.069 449.025 198.134 449L204.172 452.289L207 528C202.42 525.807 197.931 523.464 193.533 520.971C184.33 515.786 175.467 509.998 167 503.644V503.644Z" fill="#2F2E41"/>
<path d="M443.893 515.79C438.578 519.026 433.14 522.068 427.579 524.916C424.209 526.642 420.816 528.282 417.36 529.835C416.495 530.223 415.61 530.633 414.723 531L405 435.142L410.683 431C410.683 431 411.202 431.13 412.13 431.345H412.152C416.711 432.467 430.713 436.178 438.751 441.076C440.545 442.091 442.135 443.429 443.44 445.024C444.234 445.975 444.629 447.197 444.541 448.433C444.283 450.935 448.604 474.668 455 508.605C451.37 511.108 447.667 513.503 443.893 515.79Z" fill="#2F2E41"/>
<path d="M314 608C345.48 608 371 582.704 371 551.5C371 520.296 345.48 495 314 495C282.52 495 257 520.296 257 551.5C257 582.704 282.52 608 314 608Z" fill="#307128"/>
<path d="M308.932 576L292 554.097L301.847 546.392L309.862 556.762L336.945 528L346 536.631L308.932 576Z" fill="white"/>
</svg>
